%
M48
M72
T01C0.02362
T02C0.03150
T03C0.03346
T04C0.03937
T05C0.04000
T06C0.11811
%
T01
X64422Y22134
X69146Y35520
X62059Y39457
X103792Y63079
X104579Y79614
X191981Y105598
X214815Y92213
X228201Y118984
X178595Y146543
T02
X179815Y160835
X169815Y160835
X159815Y160835
X149815Y160835
X139815Y160835
X129815Y160835
X119815Y160835
X109815Y160835
X99815Y160835
X89815Y160835
X79815Y160835
X69815Y160835
X69815Y170835
X79815Y170835
X89815Y170835
X99815Y170835
X109815Y170835
X119815Y170835
X129815Y170835
X139815Y170835
X149815Y170835
X159815Y170835
X169815Y170835
X179815Y170835
X189815Y170835
X199815Y170835
X209815Y170835
X219815Y170835
X229815Y170835
X239815Y170835
X249815Y170835
X259815Y170835
X259815Y160835
X249815Y160835
X239815Y160835
X229815Y160835
X219815Y160835
X209815Y160835
X199815Y160835
X189815Y160835
T03
X49067Y30008
X64028Y30008
T04
X259697Y31819
X259697Y39693
X259697Y47567
X259697Y55441
X259697Y63315
X259697Y71189
X259697Y79063
X259697Y86937
X259697Y94811
X259697Y102685
X259697Y110559
X259697Y118433
X259697Y126307
X259697Y134181
X259697Y23945
T05
X313989Y24142
X313989Y34142
X313989Y44142
X313989Y54142
X313989Y64142
X313989Y74142
X313989Y84142
X313989Y94142
X313989Y104142
X313989Y114142
X313989Y124142
X313989Y134142
X313989Y144142
X313989Y154142
X313989Y164142
T06
X278989Y165835
X50642Y165835
M30
