G75*
%MOIN*%
%OFA0B0*%
%FSLAX25Y25*%
%IPPOS*%
%LPD*%
%AMOC8*
5,1,8,0,0,1.08239X$1,22.5*
%
%ADD10C,0.00000*%
%ADD11C,0.05550*%
%ADD12R,0.06400X0.06400*%
%ADD13OC8,0.06400*%
%ADD14R,0.16000X0.06000*%
%ADD15C,0.06337*%
%ADD16C,0.04362*%
%ADD17C,0.03200*%
%ADD18C,0.01600*%
%ADD19C,0.22835*%
D10*
X0036075Y0013472D02*
X0036075Y0179614D01*
X0322689Y0179614D01*
X0322689Y0013472D01*
X0036075Y0013472D01*
X0046607Y0030008D02*
X0046609Y0030089D01*
X0046615Y0030171D01*
X0046625Y0030252D01*
X0046639Y0030332D01*
X0046656Y0030411D01*
X0046678Y0030490D01*
X0046703Y0030567D01*
X0046732Y0030644D01*
X0046765Y0030718D01*
X0046802Y0030791D01*
X0046841Y0030862D01*
X0046885Y0030931D01*
X0046931Y0030998D01*
X0046981Y0031062D01*
X0047034Y0031124D01*
X0047090Y0031184D01*
X0047148Y0031240D01*
X0047210Y0031294D01*
X0047274Y0031345D01*
X0047340Y0031392D01*
X0047408Y0031436D01*
X0047479Y0031477D01*
X0047551Y0031514D01*
X0047626Y0031548D01*
X0047701Y0031578D01*
X0047779Y0031604D01*
X0047857Y0031627D01*
X0047936Y0031645D01*
X0048016Y0031660D01*
X0048097Y0031671D01*
X0048178Y0031678D01*
X0048260Y0031681D01*
X0048341Y0031680D01*
X0048422Y0031675D01*
X0048503Y0031666D01*
X0048584Y0031653D01*
X0048664Y0031636D01*
X0048742Y0031616D01*
X0048820Y0031591D01*
X0048897Y0031563D01*
X0048972Y0031531D01*
X0049045Y0031496D01*
X0049116Y0031457D01*
X0049186Y0031414D01*
X0049253Y0031369D01*
X0049319Y0031320D01*
X0049381Y0031268D01*
X0049441Y0031212D01*
X0049498Y0031154D01*
X0049553Y0031094D01*
X0049604Y0031030D01*
X0049652Y0030965D01*
X0049697Y0030897D01*
X0049739Y0030827D01*
X0049777Y0030755D01*
X0049812Y0030681D01*
X0049843Y0030606D01*
X0049870Y0030529D01*
X0049893Y0030451D01*
X0049913Y0030372D01*
X0049929Y0030292D01*
X0049941Y0030211D01*
X0049949Y0030130D01*
X0049953Y0030049D01*
X0049953Y0029967D01*
X0049949Y0029886D01*
X0049941Y0029805D01*
X0049929Y0029724D01*
X0049913Y0029644D01*
X0049893Y0029565D01*
X0049870Y0029487D01*
X0049843Y0029410D01*
X0049812Y0029335D01*
X0049777Y0029261D01*
X0049739Y0029189D01*
X0049697Y0029119D01*
X0049652Y0029051D01*
X0049604Y0028986D01*
X0049553Y0028922D01*
X0049498Y0028862D01*
X0049441Y0028804D01*
X0049381Y0028748D01*
X0049319Y0028696D01*
X0049253Y0028647D01*
X0049186Y0028602D01*
X0049117Y0028559D01*
X0049045Y0028520D01*
X0048972Y0028485D01*
X0048897Y0028453D01*
X0048820Y0028425D01*
X0048742Y0028400D01*
X0048664Y0028380D01*
X0048584Y0028363D01*
X0048503Y0028350D01*
X0048422Y0028341D01*
X0048341Y0028336D01*
X0048260Y0028335D01*
X0048178Y0028338D01*
X0048097Y0028345D01*
X0048016Y0028356D01*
X0047936Y0028371D01*
X0047857Y0028389D01*
X0047779Y0028412D01*
X0047701Y0028438D01*
X0047626Y0028468D01*
X0047551Y0028502D01*
X0047479Y0028539D01*
X0047408Y0028580D01*
X0047340Y0028624D01*
X0047274Y0028671D01*
X0047210Y0028722D01*
X0047148Y0028776D01*
X0047090Y0028832D01*
X0047034Y0028892D01*
X0046981Y0028954D01*
X0046931Y0029018D01*
X0046885Y0029085D01*
X0046841Y0029154D01*
X0046802Y0029225D01*
X0046765Y0029298D01*
X0046732Y0029372D01*
X0046703Y0029449D01*
X0046678Y0029526D01*
X0046656Y0029605D01*
X0046639Y0029684D01*
X0046625Y0029764D01*
X0046615Y0029845D01*
X0046609Y0029927D01*
X0046607Y0030008D01*
X0061568Y0030008D02*
X0061570Y0030089D01*
X0061576Y0030171D01*
X0061586Y0030252D01*
X0061600Y0030332D01*
X0061617Y0030411D01*
X0061639Y0030490D01*
X0061664Y0030567D01*
X0061693Y0030644D01*
X0061726Y0030718D01*
X0061763Y0030791D01*
X0061802Y0030862D01*
X0061846Y0030931D01*
X0061892Y0030998D01*
X0061942Y0031062D01*
X0061995Y0031124D01*
X0062051Y0031184D01*
X0062109Y0031240D01*
X0062171Y0031294D01*
X0062235Y0031345D01*
X0062301Y0031392D01*
X0062369Y0031436D01*
X0062440Y0031477D01*
X0062512Y0031514D01*
X0062587Y0031548D01*
X0062662Y0031578D01*
X0062740Y0031604D01*
X0062818Y0031627D01*
X0062897Y0031645D01*
X0062977Y0031660D01*
X0063058Y0031671D01*
X0063139Y0031678D01*
X0063221Y0031681D01*
X0063302Y0031680D01*
X0063383Y0031675D01*
X0063464Y0031666D01*
X0063545Y0031653D01*
X0063625Y0031636D01*
X0063703Y0031616D01*
X0063781Y0031591D01*
X0063858Y0031563D01*
X0063933Y0031531D01*
X0064006Y0031496D01*
X0064077Y0031457D01*
X0064147Y0031414D01*
X0064214Y0031369D01*
X0064280Y0031320D01*
X0064342Y0031268D01*
X0064402Y0031212D01*
X0064459Y0031154D01*
X0064514Y0031094D01*
X0064565Y0031030D01*
X0064613Y0030965D01*
X0064658Y0030897D01*
X0064700Y0030827D01*
X0064738Y0030755D01*
X0064773Y0030681D01*
X0064804Y0030606D01*
X0064831Y0030529D01*
X0064854Y0030451D01*
X0064874Y0030372D01*
X0064890Y0030292D01*
X0064902Y0030211D01*
X0064910Y0030130D01*
X0064914Y0030049D01*
X0064914Y0029967D01*
X0064910Y0029886D01*
X0064902Y0029805D01*
X0064890Y0029724D01*
X0064874Y0029644D01*
X0064854Y0029565D01*
X0064831Y0029487D01*
X0064804Y0029410D01*
X0064773Y0029335D01*
X0064738Y0029261D01*
X0064700Y0029189D01*
X0064658Y0029119D01*
X0064613Y0029051D01*
X0064565Y0028986D01*
X0064514Y0028922D01*
X0064459Y0028862D01*
X0064402Y0028804D01*
X0064342Y0028748D01*
X0064280Y0028696D01*
X0064214Y0028647D01*
X0064147Y0028602D01*
X0064078Y0028559D01*
X0064006Y0028520D01*
X0063933Y0028485D01*
X0063858Y0028453D01*
X0063781Y0028425D01*
X0063703Y0028400D01*
X0063625Y0028380D01*
X0063545Y0028363D01*
X0063464Y0028350D01*
X0063383Y0028341D01*
X0063302Y0028336D01*
X0063221Y0028335D01*
X0063139Y0028338D01*
X0063058Y0028345D01*
X0062977Y0028356D01*
X0062897Y0028371D01*
X0062818Y0028389D01*
X0062740Y0028412D01*
X0062662Y0028438D01*
X0062587Y0028468D01*
X0062512Y0028502D01*
X0062440Y0028539D01*
X0062369Y0028580D01*
X0062301Y0028624D01*
X0062235Y0028671D01*
X0062171Y0028722D01*
X0062109Y0028776D01*
X0062051Y0028832D01*
X0061995Y0028892D01*
X0061942Y0028954D01*
X0061892Y0029018D01*
X0061846Y0029085D01*
X0061802Y0029154D01*
X0061763Y0029225D01*
X0061726Y0029298D01*
X0061693Y0029372D01*
X0061664Y0029449D01*
X0061639Y0029526D01*
X0061617Y0029605D01*
X0061600Y0029684D01*
X0061586Y0029764D01*
X0061576Y0029845D01*
X0061570Y0029927D01*
X0061568Y0030008D01*
D11*
X0069028Y0160835D03*
X0079028Y0160835D03*
X0089028Y0160835D03*
X0099028Y0160835D03*
X0109028Y0160835D03*
X0119028Y0160835D03*
X0129028Y0160835D03*
X0139028Y0160835D03*
X0149028Y0160835D03*
X0159028Y0160835D03*
X0169028Y0160835D03*
X0179028Y0160835D03*
X0189028Y0160835D03*
X0199028Y0160835D03*
X0209028Y0160835D03*
X0219028Y0160835D03*
X0229028Y0160835D03*
X0239028Y0160835D03*
X0249028Y0160835D03*
X0259028Y0160835D03*
X0259028Y0170835D03*
X0249028Y0170835D03*
X0239028Y0170835D03*
X0229028Y0170835D03*
X0219028Y0170835D03*
X0209028Y0170835D03*
X0199028Y0170835D03*
X0189028Y0170835D03*
X0179028Y0170835D03*
X0169028Y0170835D03*
X0159028Y0170835D03*
X0149028Y0170835D03*
X0139028Y0170835D03*
X0129028Y0170835D03*
X0119028Y0170835D03*
X0109028Y0170835D03*
X0099028Y0170835D03*
X0089028Y0170835D03*
X0079028Y0170835D03*
X0069028Y0170835D03*
D12*
X0313201Y0164142D03*
D13*
X0313201Y0154142D03*
X0313201Y0144142D03*
X0313201Y0134142D03*
X0313201Y0124142D03*
X0313201Y0114142D03*
X0313201Y0104142D03*
X0313201Y0094142D03*
X0313201Y0084142D03*
X0313201Y0074142D03*
X0313201Y0064142D03*
X0313201Y0054142D03*
X0313201Y0044142D03*
X0313201Y0034142D03*
X0313201Y0024142D03*
D14*
X0045650Y0062213D03*
X0045650Y0082213D03*
D15*
X0255741Y0079063D02*
X0262078Y0079063D01*
X0262078Y0086937D02*
X0255741Y0086937D01*
X0255741Y0094811D02*
X0262078Y0094811D01*
X0262078Y0102685D02*
X0255741Y0102685D01*
X0255741Y0110559D02*
X0262078Y0110559D01*
X0262078Y0118433D02*
X0255741Y0118433D01*
X0255741Y0126307D02*
X0262078Y0126307D01*
X0262078Y0134181D02*
X0255741Y0134181D01*
X0255741Y0071189D02*
X0262078Y0071189D01*
X0262078Y0063315D02*
X0255741Y0063315D01*
X0255741Y0055441D02*
X0262078Y0055441D01*
X0262078Y0047567D02*
X0255741Y0047567D01*
X0255741Y0039693D02*
X0262078Y0039693D01*
X0262078Y0031819D02*
X0255741Y0031819D01*
X0255741Y0023945D02*
X0262078Y0023945D01*
D16*
X0214028Y0092213D03*
X0192768Y0104811D03*
X0193949Y0150087D03*
X0174264Y0150087D03*
X0103792Y0079614D03*
X0103004Y0063079D03*
X0061272Y0039457D03*
X0068359Y0035520D03*
X0063634Y0022134D03*
D17*
X0060642Y0062213D02*
X0045650Y0062213D01*
X0047099Y0062843D02*
X0054422Y0062843D01*
X0061272Y0063079D01*
X0063634Y0062843D01*
X0065996Y0062843D01*
X0081508Y0062843D01*
X0081744Y0063079D01*
X0103004Y0063079D01*
X0061272Y0062843D02*
X0054422Y0062843D01*
X0060642Y0062213D02*
X0061272Y0062843D01*
X0159028Y0135402D02*
X0189619Y0104811D01*
X0192768Y0104811D01*
X0214028Y0092213D02*
X0169028Y0137213D01*
X0169028Y0160835D01*
X0159028Y0160835D02*
X0159028Y0135402D01*
X0174264Y0150087D02*
X0193949Y0150087D01*
D18*
X0198530Y0149175D02*
X0197833Y0147492D01*
X0196544Y0146203D01*
X0194860Y0145506D01*
X0193038Y0145506D01*
X0191635Y0146087D01*
X0176578Y0146087D01*
X0175175Y0145506D01*
X0173353Y0145506D01*
X0173028Y0145640D01*
X0173028Y0138869D01*
X0215220Y0096677D01*
X0216623Y0096096D01*
X0217912Y0094808D01*
X0218609Y0093124D01*
X0218609Y0091301D01*
X0217912Y0089618D01*
X0216623Y0088329D01*
X0214939Y0087631D01*
X0213117Y0087631D01*
X0211433Y0088329D01*
X0210144Y0089618D01*
X0209563Y0091021D01*
X0197154Y0103429D01*
X0196652Y0102216D01*
X0195363Y0100927D01*
X0193679Y0100230D01*
X0191857Y0100230D01*
X0190454Y0100811D01*
X0188823Y0100811D01*
X0187353Y0101420D01*
X0186227Y0102545D01*
X0155637Y0133136D01*
X0155028Y0134606D01*
X0155028Y0157516D01*
X0154641Y0157903D01*
X0154028Y0159383D01*
X0153415Y0157903D01*
X0151959Y0156448D01*
X0150057Y0155660D01*
X0147999Y0155660D01*
X0146097Y0156448D01*
X0144641Y0157903D01*
X0144028Y0159383D01*
X0143415Y0157903D01*
X0141959Y0156448D01*
X0140057Y0155660D01*
X0137999Y0155660D01*
X0136097Y0156448D01*
X0134641Y0157903D01*
X0134028Y0159383D01*
X0133415Y0157903D01*
X0131959Y0156448D01*
X0130057Y0155660D01*
X0127999Y0155660D01*
X0126097Y0156448D01*
X0124641Y0157903D01*
X0124028Y0159383D01*
X0123415Y0157903D01*
X0121959Y0156448D01*
X0120057Y0155660D01*
X0117999Y0155660D01*
X0116097Y0156448D01*
X0114641Y0157903D01*
X0113853Y0159805D01*
X0113853Y0161864D01*
X0114641Y0163766D01*
X0116097Y0165222D01*
X0117577Y0165835D01*
X0116097Y0166448D01*
X0114641Y0167903D01*
X0114028Y0169383D01*
X0113415Y0167903D01*
X0111959Y0166448D01*
X0110057Y0165660D01*
X0107999Y0165660D01*
X0106097Y0166448D01*
X0104641Y0167903D01*
X0104028Y0169383D01*
X0103415Y0167903D01*
X0101959Y0166448D01*
X0100479Y0165835D01*
X0101959Y0165222D01*
X0103415Y0163766D01*
X0104203Y0161864D01*
X0104203Y0159805D01*
X0103415Y0157903D01*
X0101959Y0156448D01*
X0100057Y0155660D01*
X0097999Y0155660D01*
X0096097Y0156448D01*
X0094641Y0157903D01*
X0094028Y0159383D01*
X0093415Y0157903D01*
X0091959Y0156448D01*
X0090057Y0155660D01*
X0087999Y0155660D01*
X0086097Y0156448D01*
X0084641Y0157903D01*
X0084028Y0159383D01*
X0083415Y0157903D01*
X0081959Y0156448D01*
X0080057Y0155660D01*
X0077999Y0155660D01*
X0076097Y0156448D01*
X0074641Y0157903D01*
X0074028Y0159383D01*
X0073415Y0157903D01*
X0071959Y0156448D01*
X0070057Y0155660D01*
X0067999Y0155660D01*
X0066097Y0156448D01*
X0064641Y0157903D01*
X0063853Y0159805D01*
X0063853Y0161864D01*
X0064641Y0163766D01*
X0066097Y0165222D01*
X0067577Y0165835D01*
X0066097Y0166448D01*
X0064641Y0167903D01*
X0063853Y0169805D01*
X0063853Y0171864D01*
X0064641Y0173766D01*
X0066097Y0175222D01*
X0067999Y0176009D01*
X0070057Y0176009D01*
X0071959Y0175222D01*
X0073415Y0173766D01*
X0074028Y0172286D01*
X0074641Y0173766D01*
X0076097Y0175222D01*
X0077999Y0176009D01*
X0080057Y0176009D01*
X0081959Y0175222D01*
X0083415Y0173766D01*
X0084203Y0171864D01*
X0084203Y0169805D01*
X0083415Y0167903D01*
X0081959Y0166448D01*
X0080479Y0165835D01*
X0081959Y0165222D01*
X0083415Y0163766D01*
X0084028Y0162286D01*
X0084641Y0163766D01*
X0086097Y0165222D01*
X0087999Y0166009D01*
X0090057Y0166009D01*
X0091959Y0165222D01*
X0093415Y0163766D01*
X0094028Y0162286D01*
X0094641Y0163766D01*
X0096097Y0165222D01*
X0097577Y0165835D01*
X0096097Y0166448D01*
X0094641Y0167903D01*
X0093853Y0169805D01*
X0093853Y0171864D01*
X0094641Y0173766D01*
X0096097Y0175222D01*
X0097999Y0176009D01*
X0100057Y0176009D01*
X0101959Y0175222D01*
X0103415Y0173766D01*
X0104028Y0172286D01*
X0104641Y0173766D01*
X0106097Y0175222D01*
X0107999Y0176009D01*
X0110057Y0176009D01*
X0111959Y0175222D01*
X0113415Y0173766D01*
X0114028Y0172286D01*
X0114641Y0173766D01*
X0116097Y0175222D01*
X0117999Y0176009D01*
X0120057Y0176009D01*
X0121959Y0175222D01*
X0123415Y0173766D01*
X0124203Y0171864D01*
X0124203Y0169805D01*
X0123415Y0167903D01*
X0121959Y0166448D01*
X0120479Y0165835D01*
X0121959Y0165222D01*
X0123415Y0163766D01*
X0124028Y0162286D01*
X0124641Y0163766D01*
X0126097Y0165222D01*
X0127999Y0166009D01*
X0130057Y0166009D01*
X0131959Y0165222D01*
X0133415Y0163766D01*
X0134028Y0162286D01*
X0134641Y0163766D01*
X0136097Y0165222D01*
X0137577Y0165835D01*
X0136097Y0166448D01*
X0134641Y0167903D01*
X0133853Y0169805D01*
X0133853Y0171864D01*
X0134641Y0173766D01*
X0136097Y0175222D01*
X0137999Y0176009D01*
X0140057Y0176009D01*
X0141959Y0175222D01*
X0143415Y0173766D01*
X0144028Y0172286D01*
X0144641Y0173766D01*
X0146097Y0175222D01*
X0147999Y0176009D01*
X0150057Y0176009D01*
X0151959Y0175222D01*
X0153415Y0173766D01*
X0154203Y0171864D01*
X0154203Y0169805D01*
X0153415Y0167903D01*
X0151959Y0166448D01*
X0150479Y0165835D01*
X0151959Y0165222D01*
X0153415Y0163766D01*
X0154028Y0162286D01*
X0154641Y0163766D01*
X0156097Y0165222D01*
X0157999Y0166009D01*
X0160057Y0166009D01*
X0161959Y0165222D01*
X0163415Y0163766D01*
X0164028Y0162286D01*
X0164641Y0163766D01*
X0166097Y0165222D01*
X0167577Y0165835D01*
X0166097Y0166448D01*
X0164641Y0167903D01*
X0163853Y0169805D01*
X0163853Y0171864D01*
X0164641Y0173766D01*
X0166097Y0175222D01*
X0167999Y0176009D01*
X0170057Y0176009D01*
X0171959Y0175222D01*
X0173415Y0173766D01*
X0174028Y0172286D01*
X0174641Y0173766D01*
X0176097Y0175222D01*
X0177999Y0176009D01*
X0180057Y0176009D01*
X0181959Y0175222D01*
X0183415Y0173766D01*
X0184028Y0172286D01*
X0184641Y0173766D01*
X0186097Y0175222D01*
X0187999Y0176009D01*
X0190057Y0176009D01*
X0191959Y0175222D01*
X0193415Y0173766D01*
X0194028Y0172286D01*
X0194641Y0173766D01*
X0196097Y0175222D01*
X0197999Y0176009D01*
X0200057Y0176009D01*
X0201959Y0175222D01*
X0203415Y0173766D01*
X0204203Y0171864D01*
X0204203Y0169805D01*
X0203415Y0167903D01*
X0201959Y0166448D01*
X0200479Y0165835D01*
X0201959Y0165222D01*
X0203415Y0163766D01*
X0204028Y0162286D01*
X0204641Y0163766D01*
X0206097Y0165222D01*
X0207999Y0166009D01*
X0210057Y0166009D01*
X0211959Y0165222D01*
X0213415Y0163766D01*
X0214028Y0162286D01*
X0214641Y0163766D01*
X0216097Y0165222D01*
X0217577Y0165835D01*
X0216097Y0166448D01*
X0214641Y0167903D01*
X0213853Y0169805D01*
X0213853Y0171864D01*
X0214641Y0173766D01*
X0216097Y0175222D01*
X0217999Y0176009D01*
X0220057Y0176009D01*
X0221959Y0175222D01*
X0223415Y0173766D01*
X0224203Y0171864D01*
X0224203Y0169805D01*
X0223415Y0167903D01*
X0221959Y0166448D01*
X0220479Y0165835D01*
X0221959Y0165222D01*
X0223415Y0163766D01*
X0224028Y0162286D01*
X0224641Y0163766D01*
X0226097Y0165222D01*
X0227999Y0166009D01*
X0230057Y0166009D01*
X0231959Y0165222D01*
X0233415Y0163766D01*
X0234028Y0162286D01*
X0234641Y0163766D01*
X0236097Y0165222D01*
X0237577Y0165835D01*
X0236097Y0166448D01*
X0234641Y0167903D01*
X0233853Y0169805D01*
X0233853Y0171864D01*
X0234641Y0173766D01*
X0236097Y0175222D01*
X0237999Y0176009D01*
X0240057Y0176009D01*
X0241959Y0175222D01*
X0243415Y0173766D01*
X0244028Y0172286D01*
X0244641Y0173766D01*
X0246097Y0175222D01*
X0247999Y0176009D01*
X0250057Y0176009D01*
X0251959Y0175222D01*
X0253415Y0173766D01*
X0254028Y0172286D01*
X0254641Y0173766D01*
X0256097Y0175222D01*
X0257999Y0176009D01*
X0260057Y0176009D01*
X0261959Y0175222D01*
X0263415Y0173766D01*
X0264203Y0171864D01*
X0264203Y0169805D01*
X0263415Y0167903D01*
X0261959Y0166448D01*
X0260057Y0165660D01*
X0257999Y0165660D01*
X0256097Y0166448D01*
X0254641Y0167903D01*
X0254028Y0169383D01*
X0253415Y0167903D01*
X0251959Y0166448D01*
X0250479Y0165835D01*
X0251959Y0165222D01*
X0253415Y0163766D01*
X0254203Y0161864D01*
X0254203Y0159805D01*
X0253415Y0157903D01*
X0251959Y0156448D01*
X0250057Y0155660D01*
X0247999Y0155660D01*
X0246097Y0156448D01*
X0244641Y0157903D01*
X0244028Y0159383D01*
X0243415Y0157903D01*
X0241959Y0156448D01*
X0240057Y0155660D01*
X0237999Y0155660D01*
X0236097Y0156448D01*
X0234641Y0157903D01*
X0234028Y0159383D01*
X0233415Y0157903D01*
X0231959Y0156448D01*
X0230057Y0155660D01*
X0227999Y0155660D01*
X0226097Y0156448D01*
X0224641Y0157903D01*
X0224028Y0159383D01*
X0223415Y0157903D01*
X0221959Y0156448D01*
X0220057Y0155660D01*
X0217999Y0155660D01*
X0216097Y0156448D01*
X0214641Y0157903D01*
X0214028Y0159383D01*
X0213415Y0157903D01*
X0211959Y0156448D01*
X0210057Y0155660D01*
X0207999Y0155660D01*
X0206097Y0156448D01*
X0204641Y0157903D01*
X0204028Y0159383D01*
X0203415Y0157903D01*
X0201959Y0156448D01*
X0200057Y0155660D01*
X0197999Y0155660D01*
X0196097Y0156448D01*
X0194641Y0157903D01*
X0193853Y0159805D01*
X0193853Y0161864D01*
X0194641Y0163766D01*
X0196097Y0165222D01*
X0197577Y0165835D01*
X0196097Y0166448D01*
X0194641Y0167903D01*
X0194028Y0169383D01*
X0193415Y0167903D01*
X0191959Y0166448D01*
X0190057Y0165660D01*
X0187999Y0165660D01*
X0186097Y0166448D01*
X0184641Y0167903D01*
X0184028Y0169383D01*
X0183415Y0167903D01*
X0181959Y0166448D01*
X0180479Y0165835D01*
X0181959Y0165222D01*
X0183415Y0163766D01*
X0184203Y0161864D01*
X0184203Y0159805D01*
X0183415Y0157903D01*
X0181959Y0156448D01*
X0180057Y0155660D01*
X0177999Y0155660D01*
X0176097Y0156448D01*
X0174641Y0157903D01*
X0174028Y0159383D01*
X0173415Y0157903D01*
X0173028Y0157516D01*
X0173028Y0154533D01*
X0173353Y0154668D01*
X0175175Y0154668D01*
X0176578Y0154087D01*
X0191635Y0154087D01*
X0193038Y0154668D01*
X0194860Y0154668D01*
X0196544Y0153970D01*
X0197833Y0152682D01*
X0198530Y0150998D01*
X0198530Y0149175D01*
X0198530Y0149365D02*
X0310504Y0149365D01*
X0310706Y0149566D02*
X0307601Y0146461D01*
X0307601Y0141822D01*
X0310706Y0138717D01*
X0308201Y0136213D01*
X0308201Y0134342D01*
X0313001Y0134342D01*
X0313001Y0133942D01*
X0308201Y0133942D01*
X0308201Y0132071D01*
X0310706Y0129566D01*
X0307601Y0126461D01*
X0307601Y0121822D01*
X0310282Y0119142D01*
X0307601Y0116461D01*
X0307601Y0111822D01*
X0310282Y0109142D01*
X0307601Y0106461D01*
X0307601Y0101822D01*
X0310282Y0099142D01*
X0307601Y0096461D01*
X0307601Y0091822D01*
X0310282Y0089142D01*
X0307601Y0086461D01*
X0307601Y0081822D01*
X0310282Y0079142D01*
X0307601Y0076461D01*
X0307601Y0071822D01*
X0310282Y0069142D01*
X0307601Y0066461D01*
X0307601Y0061822D01*
X0310282Y0059142D01*
X0307601Y0056461D01*
X0307601Y0051822D01*
X0310282Y0049142D01*
X0307601Y0046461D01*
X0307601Y0041822D01*
X0310282Y0039142D01*
X0307601Y0036461D01*
X0307601Y0031822D01*
X0310282Y0029142D01*
X0307601Y0026461D01*
X0307601Y0021822D01*
X0310882Y0018542D01*
X0315521Y0018542D01*
X0318801Y0021822D01*
X0318801Y0026461D01*
X0316121Y0029142D01*
X0318801Y0031822D01*
X0318801Y0036461D01*
X0316121Y0039142D01*
X0318801Y0041822D01*
X0318801Y0046461D01*
X0316121Y0049142D01*
X0318801Y0051822D01*
X0318801Y0056461D01*
X0316121Y0059142D01*
X0318801Y0061822D01*
X0318801Y0066461D01*
X0316121Y0069142D01*
X0318801Y0071822D01*
X0318801Y0076461D01*
X0316121Y0079142D01*
X0318801Y0081822D01*
X0318801Y0086461D01*
X0316121Y0089142D01*
X0318801Y0091822D01*
X0318801Y0096461D01*
X0316121Y0099142D01*
X0318801Y0101822D01*
X0318801Y0106461D01*
X0316121Y0109142D01*
X0318801Y0111822D01*
X0318801Y0116461D01*
X0316121Y0119142D01*
X0318801Y0121822D01*
X0318801Y0126461D01*
X0315696Y0129566D01*
X0318201Y0132071D01*
X0318201Y0133942D01*
X0313401Y0133942D01*
X0313401Y0134342D01*
X0318201Y0134342D01*
X0318201Y0136213D01*
X0315696Y0138717D01*
X0318801Y0141822D01*
X0318801Y0146461D01*
X0315696Y0149566D01*
X0318201Y0152071D01*
X0318201Y0153942D01*
X0313401Y0153942D01*
X0313401Y0154342D01*
X0318201Y0154342D01*
X0318201Y0156213D01*
X0315872Y0158542D01*
X0316879Y0158542D01*
X0317761Y0158907D01*
X0318436Y0159582D01*
X0318801Y0160464D01*
X0318801Y0167819D01*
X0318436Y0168701D01*
X0317761Y0169376D01*
X0316879Y0169742D01*
X0309524Y0169742D01*
X0308642Y0169376D01*
X0307967Y0168701D01*
X0307601Y0167819D01*
X0307601Y0160464D01*
X0307967Y0159582D01*
X0308642Y0158907D01*
X0309524Y0158542D01*
X0310530Y0158542D01*
X0308201Y0156213D01*
X0308201Y0154342D01*
X0313001Y0154342D01*
X0313001Y0153942D01*
X0308201Y0153942D01*
X0308201Y0152071D01*
X0310706Y0149566D01*
X0309309Y0150963D02*
X0198530Y0150963D01*
X0197883Y0152562D02*
X0274351Y0152562D01*
X0272868Y0152959D02*
X0276382Y0152017D01*
X0280020Y0152017D01*
X0283534Y0152959D01*
X0286685Y0154778D01*
X0289258Y0157351D01*
X0291077Y0160501D01*
X0292018Y0164016D01*
X0292018Y0167654D01*
X0291077Y0171168D01*
X0289258Y0174319D01*
X0286685Y0176891D01*
X0286126Y0177214D01*
X0320289Y0177214D01*
X0320289Y0015872D01*
X0038475Y0015872D01*
X0038475Y0057413D01*
X0044950Y0057413D01*
X0044950Y0061513D01*
X0046350Y0061513D01*
X0046350Y0062913D01*
X0044950Y0062913D01*
X0044950Y0067013D01*
X0038475Y0067013D01*
X0038475Y0077413D01*
X0044950Y0077413D01*
X0044950Y0081513D01*
X0046350Y0081513D01*
X0046350Y0082913D01*
X0044950Y0082913D01*
X0044950Y0087013D01*
X0038475Y0087013D01*
X0038475Y0157910D01*
X0038798Y0157351D01*
X0041371Y0154778D01*
X0044521Y0152959D01*
X0048036Y0152017D01*
X0051674Y0152017D01*
X0055188Y0152959D01*
X0058339Y0154778D01*
X0060911Y0157351D01*
X0062730Y0160501D01*
X0063672Y0164016D01*
X0063672Y0167654D01*
X0062730Y0171168D01*
X0060911Y0174319D01*
X0058339Y0176891D01*
X0057779Y0177214D01*
X0270277Y0177214D01*
X0269717Y0176891D01*
X0267145Y0174319D01*
X0265325Y0171168D01*
X0264384Y0167654D01*
X0264384Y0164016D01*
X0265325Y0160501D01*
X0267145Y0157351D01*
X0269717Y0154778D01*
X0272868Y0152959D01*
X0270787Y0154160D02*
X0196086Y0154160D01*
X0197760Y0155759D02*
X0180296Y0155759D01*
X0177760Y0155759D02*
X0173028Y0155759D01*
X0173028Y0157357D02*
X0175187Y0157357D01*
X0174205Y0158956D02*
X0173851Y0158956D01*
X0176401Y0154160D02*
X0191813Y0154160D01*
X0190784Y0156595D02*
X0191426Y0156922D01*
X0192008Y0157345D01*
X0192517Y0157854D01*
X0192941Y0158437D01*
X0193268Y0159079D01*
X0193490Y0159763D01*
X0193603Y0160475D01*
X0193603Y0160835D01*
X0193603Y0161195D01*
X0193490Y0161906D01*
X0193268Y0162591D01*
X0192941Y0163232D01*
X0192517Y0163815D01*
X0192008Y0164324D01*
X0191426Y0164747D01*
X0190784Y0165074D01*
X0190099Y0165297D01*
X0189388Y0165409D01*
X0189028Y0165409D01*
X0189028Y0160835D01*
X0189028Y0160835D01*
X0189028Y0165409D01*
X0188668Y0165409D01*
X0187957Y0165297D01*
X0187272Y0165074D01*
X0186630Y0164747D01*
X0186048Y0164324D01*
X0185538Y0163815D01*
X0185115Y0163232D01*
X0184788Y0162591D01*
X0184566Y0161906D01*
X0184453Y0161195D01*
X0184453Y0160835D01*
X0189028Y0160835D01*
X0193603Y0160835D01*
X0189028Y0160835D01*
X0189028Y0160835D01*
X0189028Y0160835D01*
X0184453Y0160835D01*
X0184453Y0160475D01*
X0184566Y0159763D01*
X0184788Y0159079D01*
X0185115Y0158437D01*
X0185538Y0157854D01*
X0186048Y0157345D01*
X0186630Y0156922D01*
X0187272Y0156595D01*
X0187957Y0156372D01*
X0188668Y0156260D01*
X0189028Y0156260D01*
X0189388Y0156260D01*
X0190099Y0156372D01*
X0190784Y0156595D01*
X0192020Y0157357D02*
X0195187Y0157357D01*
X0194205Y0158956D02*
X0193205Y0158956D01*
X0193603Y0160554D02*
X0193853Y0160554D01*
X0193973Y0162153D02*
X0193410Y0162153D01*
X0192564Y0163751D02*
X0194635Y0163751D01*
X0196406Y0165350D02*
X0189765Y0165350D01*
X0189028Y0165350D02*
X0189028Y0165350D01*
X0188291Y0165350D02*
X0181650Y0165350D01*
X0182460Y0166948D02*
X0185596Y0166948D01*
X0184374Y0168547D02*
X0183681Y0168547D01*
X0183421Y0163751D02*
X0185492Y0163751D01*
X0184646Y0162153D02*
X0184083Y0162153D01*
X0184203Y0160554D02*
X0184453Y0160554D01*
X0184851Y0158956D02*
X0183851Y0158956D01*
X0182869Y0157357D02*
X0186036Y0157357D01*
X0189028Y0157357D02*
X0189028Y0157357D01*
X0189028Y0156260D02*
X0189028Y0160835D01*
X0189028Y0160835D01*
X0189028Y0156260D01*
X0189028Y0158956D02*
X0189028Y0158956D01*
X0189028Y0160554D02*
X0189028Y0160554D01*
X0189028Y0162153D02*
X0189028Y0162153D01*
X0189028Y0163751D02*
X0189028Y0163751D01*
X0192460Y0166948D02*
X0195596Y0166948D01*
X0194374Y0168547D02*
X0193681Y0168547D01*
X0193590Y0173342D02*
X0194465Y0173342D01*
X0195816Y0174941D02*
X0192240Y0174941D01*
X0185816Y0174941D02*
X0182240Y0174941D01*
X0183590Y0173342D02*
X0184465Y0173342D01*
X0175816Y0174941D02*
X0172240Y0174941D01*
X0173590Y0173342D02*
X0174465Y0173342D01*
X0165816Y0174941D02*
X0161046Y0174941D01*
X0160784Y0175074D02*
X0160099Y0175297D01*
X0159388Y0175409D01*
X0159028Y0175409D01*
X0159028Y0170835D01*
X0159028Y0170835D01*
X0159028Y0175409D01*
X0158668Y0175409D01*
X0157957Y0175297D01*
X0157272Y0175074D01*
X0156630Y0174747D01*
X0156048Y0174324D01*
X0155538Y0173815D01*
X0155115Y0173232D01*
X0154788Y0172591D01*
X0154566Y0171906D01*
X0154453Y0171195D01*
X0154453Y0170835D01*
X0159028Y0170835D01*
X0163603Y0170835D01*
X0163603Y0171195D01*
X0163490Y0171906D01*
X0163268Y0172591D01*
X0162941Y0173232D01*
X0162517Y0173815D01*
X0162008Y0174324D01*
X0161426Y0174747D01*
X0160784Y0175074D01*
X0159028Y0174941D02*
X0159028Y0174941D01*
X0159028Y0173342D02*
X0159028Y0173342D01*
X0159028Y0171744D02*
X0159028Y0171744D01*
X0159028Y0170835D02*
X0159028Y0170835D01*
X0159028Y0170835D01*
X0163603Y0170835D01*
X0163603Y0170475D01*
X0163490Y0169763D01*
X0163268Y0169079D01*
X0162941Y0168437D01*
X0162517Y0167854D01*
X0162008Y0167345D01*
X0161426Y0166922D01*
X0160784Y0166595D01*
X0160099Y0166372D01*
X0159388Y0166260D01*
X0159028Y0166260D01*
X0159028Y0170835D01*
X0154453Y0170835D01*
X0154453Y0170475D01*
X0154566Y0169763D01*
X0154788Y0169079D01*
X0155115Y0168437D01*
X0155538Y0167854D01*
X0156048Y0167345D01*
X0156630Y0166922D01*
X0157272Y0166595D01*
X0157957Y0166372D01*
X0158668Y0166260D01*
X0159028Y0166260D01*
X0159028Y0170835D01*
X0159028Y0170835D01*
X0159028Y0170145D02*
X0159028Y0170145D01*
X0159028Y0168547D02*
X0159028Y0168547D01*
X0159028Y0166948D02*
X0159028Y0166948D01*
X0161462Y0166948D02*
X0165596Y0166948D01*
X0166406Y0165350D02*
X0161650Y0165350D01*
X0163421Y0163751D02*
X0164635Y0163751D01*
X0164374Y0168547D02*
X0162997Y0168547D01*
X0163551Y0170145D02*
X0163853Y0170145D01*
X0163853Y0171744D02*
X0163516Y0171744D01*
X0162861Y0173342D02*
X0164465Y0173342D01*
X0157010Y0174941D02*
X0152240Y0174941D01*
X0153590Y0173342D02*
X0155195Y0173342D01*
X0154540Y0171744D02*
X0154203Y0171744D01*
X0154203Y0170145D02*
X0154505Y0170145D01*
X0155059Y0168547D02*
X0153681Y0168547D01*
X0152460Y0166948D02*
X0156594Y0166948D01*
X0156406Y0165350D02*
X0151650Y0165350D01*
X0153421Y0163751D02*
X0154635Y0163751D01*
X0154205Y0158956D02*
X0153851Y0158956D01*
X0152869Y0157357D02*
X0155028Y0157357D01*
X0155028Y0155759D02*
X0150296Y0155759D01*
X0147760Y0155759D02*
X0140296Y0155759D01*
X0137760Y0155759D02*
X0130296Y0155759D01*
X0127760Y0155759D02*
X0120296Y0155759D01*
X0117760Y0155759D02*
X0100296Y0155759D01*
X0097760Y0155759D02*
X0090296Y0155759D01*
X0087760Y0155759D02*
X0080296Y0155759D01*
X0077760Y0155759D02*
X0070296Y0155759D01*
X0067760Y0155759D02*
X0059319Y0155759D01*
X0060915Y0157357D02*
X0065187Y0157357D01*
X0064205Y0158956D02*
X0061838Y0158956D01*
X0062745Y0160554D02*
X0063853Y0160554D01*
X0063973Y0162153D02*
X0063173Y0162153D01*
X0063601Y0163751D02*
X0064635Y0163751D01*
X0063672Y0165350D02*
X0066406Y0165350D01*
X0065596Y0166948D02*
X0063672Y0166948D01*
X0063433Y0168547D02*
X0064374Y0168547D01*
X0063853Y0170145D02*
X0063004Y0170145D01*
X0062398Y0171744D02*
X0063853Y0171744D01*
X0064465Y0173342D02*
X0061475Y0173342D01*
X0060289Y0174941D02*
X0065816Y0174941D01*
X0072240Y0174941D02*
X0075816Y0174941D01*
X0074465Y0173342D02*
X0073590Y0173342D01*
X0082240Y0174941D02*
X0087010Y0174941D01*
X0087272Y0175074D02*
X0086630Y0174747D01*
X0086048Y0174324D01*
X0085538Y0173815D01*
X0085115Y0173232D01*
X0084788Y0172591D01*
X0084566Y0171906D01*
X0084453Y0171195D01*
X0084453Y0170835D01*
X0089028Y0170835D01*
X0089028Y0170835D01*
X0089028Y0175409D01*
X0089388Y0175409D01*
X0090099Y0175297D01*
X0090784Y0175074D01*
X0091426Y0174747D01*
X0092008Y0174324D01*
X0092517Y0173815D01*
X0092941Y0173232D01*
X0093268Y0172591D01*
X0093490Y0171906D01*
X0093603Y0171195D01*
X0093603Y0170835D01*
X0089028Y0170835D01*
X0089028Y0175409D01*
X0088668Y0175409D01*
X0087957Y0175297D01*
X0087272Y0175074D01*
X0089028Y0174941D02*
X0089028Y0174941D01*
X0089028Y0173342D02*
X0089028Y0173342D01*
X0089028Y0171744D02*
X0089028Y0171744D01*
X0089028Y0170835D02*
X0089028Y0170835D01*
X0089028Y0170835D01*
X0093603Y0170835D01*
X0093603Y0170475D01*
X0093490Y0169763D01*
X0093268Y0169079D01*
X0092941Y0168437D01*
X0092517Y0167854D01*
X0092008Y0167345D01*
X0091426Y0166922D01*
X0090784Y0166595D01*
X0090099Y0166372D01*
X0089388Y0166260D01*
X0089028Y0166260D01*
X0089028Y0170835D01*
X0084453Y0170835D01*
X0084453Y0170475D01*
X0084566Y0169763D01*
X0084788Y0169079D01*
X0085115Y0168437D01*
X0085538Y0167854D01*
X0086048Y0167345D01*
X0086630Y0166922D01*
X0087272Y0166595D01*
X0087957Y0166372D01*
X0088668Y0166260D01*
X0089028Y0166260D01*
X0089028Y0170835D01*
X0089028Y0170835D01*
X0089028Y0170145D02*
X0089028Y0170145D01*
X0089028Y0168547D02*
X0089028Y0168547D01*
X0089028Y0166948D02*
X0089028Y0166948D01*
X0091462Y0166948D02*
X0095596Y0166948D01*
X0096406Y0165350D02*
X0091650Y0165350D01*
X0093421Y0163751D02*
X0094635Y0163751D01*
X0094374Y0168547D02*
X0092997Y0168547D01*
X0093551Y0170145D02*
X0093853Y0170145D01*
X0093853Y0171744D02*
X0093516Y0171744D01*
X0092861Y0173342D02*
X0094465Y0173342D01*
X0095816Y0174941D02*
X0091046Y0174941D01*
X0085195Y0173342D02*
X0083590Y0173342D01*
X0084203Y0171744D02*
X0084540Y0171744D01*
X0084505Y0170145D02*
X0084203Y0170145D01*
X0083681Y0168547D02*
X0085059Y0168547D01*
X0086594Y0166948D02*
X0082460Y0166948D01*
X0081650Y0165350D02*
X0086406Y0165350D01*
X0084635Y0163751D02*
X0083421Y0163751D01*
X0083851Y0158956D02*
X0084205Y0158956D01*
X0085187Y0157357D02*
X0082869Y0157357D01*
X0075187Y0157357D02*
X0072869Y0157357D01*
X0073851Y0158956D02*
X0074205Y0158956D01*
X0057268Y0154160D02*
X0155028Y0154160D01*
X0155028Y0152562D02*
X0053705Y0152562D01*
X0046004Y0152562D02*
X0038475Y0152562D01*
X0038475Y0154160D02*
X0042441Y0154160D01*
X0040390Y0155759D02*
X0038475Y0155759D01*
X0038475Y0157357D02*
X0038794Y0157357D01*
X0038475Y0150963D02*
X0155028Y0150963D01*
X0155028Y0149365D02*
X0038475Y0149365D01*
X0038475Y0147766D02*
X0155028Y0147766D01*
X0155028Y0146168D02*
X0038475Y0146168D01*
X0038475Y0144569D02*
X0155028Y0144569D01*
X0155028Y0142971D02*
X0038475Y0142971D01*
X0038475Y0141372D02*
X0155028Y0141372D01*
X0155028Y0139774D02*
X0038475Y0139774D01*
X0038475Y0138175D02*
X0155028Y0138175D01*
X0155028Y0136576D02*
X0038475Y0136576D01*
X0038475Y0134978D02*
X0155028Y0134978D01*
X0155536Y0133379D02*
X0038475Y0133379D01*
X0038475Y0131781D02*
X0156992Y0131781D01*
X0158590Y0130182D02*
X0038475Y0130182D01*
X0038475Y0128584D02*
X0160189Y0128584D01*
X0161787Y0126985D02*
X0038475Y0126985D01*
X0038475Y0125387D02*
X0163386Y0125387D01*
X0164984Y0123788D02*
X0038475Y0123788D01*
X0038475Y0122190D02*
X0166583Y0122190D01*
X0168181Y0120591D02*
X0038475Y0120591D01*
X0038475Y0118993D02*
X0169780Y0118993D01*
X0171378Y0117394D02*
X0038475Y0117394D01*
X0038475Y0115796D02*
X0172977Y0115796D01*
X0174575Y0114197D02*
X0038475Y0114197D01*
X0038475Y0112599D02*
X0176174Y0112599D01*
X0177772Y0111000D02*
X0038475Y0111000D01*
X0038475Y0109402D02*
X0179371Y0109402D01*
X0180969Y0107803D02*
X0038475Y0107803D01*
X0038475Y0106205D02*
X0182568Y0106205D01*
X0184166Y0104606D02*
X0038475Y0104606D01*
X0038475Y0103008D02*
X0185765Y0103008D01*
X0187379Y0101409D02*
X0038475Y0101409D01*
X0038475Y0099811D02*
X0200773Y0099811D01*
X0199174Y0101409D02*
X0195845Y0101409D01*
X0196980Y0103008D02*
X0197576Y0103008D01*
X0202371Y0098212D02*
X0038475Y0098212D01*
X0038475Y0096614D02*
X0203970Y0096614D01*
X0205569Y0095015D02*
X0038475Y0095015D01*
X0038475Y0093417D02*
X0207167Y0093417D01*
X0208766Y0091818D02*
X0038475Y0091818D01*
X0038475Y0090220D02*
X0209895Y0090220D01*
X0211141Y0088621D02*
X0038475Y0088621D01*
X0038475Y0087023D02*
X0250173Y0087023D01*
X0250173Y0088045D02*
X0250173Y0085829D01*
X0251021Y0083783D01*
X0251803Y0083000D01*
X0251021Y0082217D01*
X0250173Y0080171D01*
X0250173Y0077955D01*
X0251021Y0075909D01*
X0251803Y0075126D01*
X0251021Y0074343D01*
X0250173Y0072297D01*
X0250173Y0070081D01*
X0251021Y0068035D01*
X0251803Y0067252D01*
X0251021Y0066469D01*
X0250173Y0064423D01*
X0250173Y0062207D01*
X0251021Y0060161D01*
X0251803Y0059378D01*
X0251021Y0058595D01*
X0250173Y0056549D01*
X0250173Y0054333D01*
X0251021Y0052287D01*
X0251803Y0051504D01*
X0251021Y0050721D01*
X0250173Y0048675D01*
X0250173Y0046459D01*
X0251021Y0044413D01*
X0251803Y0043630D01*
X0251021Y0042847D01*
X0250173Y0040801D01*
X0250173Y0038585D01*
X0251021Y0036539D01*
X0251803Y0035756D01*
X0251021Y0034973D01*
X0250173Y0032927D01*
X0250173Y0030711D01*
X0251021Y0028665D01*
X0251803Y0027882D01*
X0251021Y0027099D01*
X0250173Y0025053D01*
X0250173Y0022837D01*
X0251021Y0020791D01*
X0252587Y0019224D01*
X0254634Y0018376D01*
X0263186Y0018376D01*
X0265233Y0019224D01*
X0266799Y0020791D01*
X0267647Y0022837D01*
X0267647Y0025053D01*
X0266799Y0027099D01*
X0266016Y0027882D01*
X0266799Y0028665D01*
X0267647Y0030711D01*
X0267647Y0032927D01*
X0266799Y0034973D01*
X0266016Y0035756D01*
X0266799Y0036539D01*
X0267647Y0038585D01*
X0267647Y0040801D01*
X0266799Y0042847D01*
X0266016Y0043630D01*
X0266799Y0044413D01*
X0267647Y0046459D01*
X0267647Y0048675D01*
X0266799Y0050721D01*
X0266016Y0051504D01*
X0266799Y0052287D01*
X0267647Y0054333D01*
X0267647Y0056549D01*
X0266799Y0058595D01*
X0266016Y0059378D01*
X0266799Y0060161D01*
X0267647Y0062207D01*
X0267647Y0064423D01*
X0266799Y0066469D01*
X0266016Y0067252D01*
X0266799Y0068035D01*
X0267647Y0070081D01*
X0267647Y0072297D01*
X0266799Y0074343D01*
X0266016Y0075126D01*
X0266799Y0075909D01*
X0267647Y0077955D01*
X0267647Y0080171D01*
X0266799Y0082217D01*
X0266016Y0083000D01*
X0266799Y0083783D01*
X0267647Y0085829D01*
X0267647Y0088045D01*
X0266799Y0090091D01*
X0266016Y0090874D01*
X0266799Y0091657D01*
X0267647Y0093703D01*
X0267647Y0095919D01*
X0266799Y0097965D01*
X0266016Y0098748D01*
X0266799Y0099531D01*
X0267647Y0101577D01*
X0267647Y0103793D01*
X0266799Y0105839D01*
X0265592Y0107046D01*
X0265868Y0107322D01*
X0266328Y0107955D01*
X0266683Y0108652D01*
X0266924Y0109396D01*
X0267047Y0110168D01*
X0267047Y0110375D01*
X0259094Y0110375D01*
X0259094Y0110743D01*
X0267047Y0110743D01*
X0267047Y0110950D01*
X0266924Y0111723D01*
X0266683Y0112466D01*
X0266328Y0113163D01*
X0265868Y0113796D01*
X0265592Y0114072D01*
X0266799Y0115279D01*
X0267647Y0117325D01*
X0267647Y0119541D01*
X0266799Y0121587D01*
X0265592Y0122794D01*
X0265868Y0123070D01*
X0266328Y0123703D01*
X0266683Y0124400D01*
X0266924Y0125144D01*
X0267047Y0125916D01*
X0267047Y0126123D01*
X0259094Y0126123D01*
X0259094Y0126491D01*
X0267047Y0126491D01*
X0267047Y0126698D01*
X0266924Y0127471D01*
X0266683Y0128214D01*
X0266328Y0128911D01*
X0265868Y0129544D01*
X0265592Y0129820D01*
X0266799Y0131027D01*
X0267647Y0133073D01*
X0267647Y0135289D01*
X0266799Y0137335D01*
X0265233Y0138902D01*
X0263186Y0139750D01*
X0254634Y0139750D01*
X0252587Y0138902D01*
X0251021Y0137335D01*
X0250173Y0135289D01*
X0250173Y0133073D01*
X0251021Y0131027D01*
X0252228Y0129820D01*
X0251952Y0129544D01*
X0251492Y0128911D01*
X0251137Y0128214D01*
X0250895Y0127471D01*
X0250773Y0126698D01*
X0250773Y0126491D01*
X0258726Y0126491D01*
X0258726Y0126123D01*
X0250773Y0126123D01*
X0250773Y0125916D01*
X0250895Y0125144D01*
X0251137Y0124400D01*
X0251492Y0123703D01*
X0251952Y0123070D01*
X0252228Y0122794D01*
X0251021Y0121587D01*
X0250173Y0119541D01*
X0250173Y0117325D01*
X0251021Y0115279D01*
X0252228Y0114072D01*
X0251952Y0113796D01*
X0251492Y0113163D01*
X0251137Y0112466D01*
X0250895Y0111723D01*
X0250773Y0110950D01*
X0250773Y0110743D01*
X0258726Y0110743D01*
X0258726Y0110375D01*
X0250773Y0110375D01*
X0250773Y0110168D01*
X0250895Y0109396D01*
X0251137Y0108652D01*
X0251492Y0107955D01*
X0251952Y0107322D01*
X0252228Y0107046D01*
X0251021Y0105839D01*
X0250173Y0103793D01*
X0250173Y0101577D01*
X0251021Y0099531D01*
X0251803Y0098748D01*
X0251021Y0097965D01*
X0250173Y0095919D01*
X0250173Y0093703D01*
X0251021Y0091657D01*
X0251803Y0090874D01*
X0251021Y0090091D01*
X0250173Y0088045D01*
X0250412Y0088621D02*
X0216915Y0088621D01*
X0218161Y0090220D02*
X0251149Y0090220D01*
X0250954Y0091818D02*
X0218609Y0091818D01*
X0218488Y0093417D02*
X0250292Y0093417D01*
X0250173Y0095015D02*
X0217704Y0095015D01*
X0215374Y0096614D02*
X0250461Y0096614D01*
X0251267Y0098212D02*
X0213685Y0098212D01*
X0212087Y0099811D02*
X0250905Y0099811D01*
X0250242Y0101409D02*
X0210488Y0101409D01*
X0208890Y0103008D02*
X0250173Y0103008D01*
X0250510Y0104606D02*
X0207291Y0104606D01*
X0205693Y0106205D02*
X0251386Y0106205D01*
X0251602Y0107803D02*
X0204094Y0107803D01*
X0202496Y0109402D02*
X0250894Y0109402D01*
X0250781Y0111000D02*
X0200897Y0111000D01*
X0199299Y0112599D02*
X0251204Y0112599D01*
X0252102Y0114197D02*
X0197700Y0114197D01*
X0196102Y0115796D02*
X0250806Y0115796D01*
X0250173Y0117394D02*
X0194503Y0117394D01*
X0192905Y0118993D02*
X0250173Y0118993D01*
X0250608Y0120591D02*
X0191306Y0120591D01*
X0189708Y0122190D02*
X0251623Y0122190D01*
X0251448Y0123788D02*
X0188109Y0123788D01*
X0186510Y0125387D02*
X0250857Y0125387D01*
X0250818Y0126985D02*
X0184912Y0126985D01*
X0183313Y0128584D02*
X0251325Y0128584D01*
X0251865Y0130182D02*
X0181715Y0130182D01*
X0180116Y0131781D02*
X0250708Y0131781D01*
X0250173Y0133379D02*
X0178518Y0133379D01*
X0176919Y0134978D02*
X0250173Y0134978D01*
X0250706Y0136576D02*
X0175321Y0136576D01*
X0173722Y0138175D02*
X0251860Y0138175D01*
X0265959Y0138175D02*
X0310163Y0138175D01*
X0309650Y0139774D02*
X0173028Y0139774D01*
X0173028Y0141372D02*
X0308051Y0141372D01*
X0307601Y0142971D02*
X0173028Y0142971D01*
X0173028Y0144569D02*
X0307601Y0144569D01*
X0307601Y0146168D02*
X0196459Y0146168D01*
X0197947Y0147766D02*
X0308906Y0147766D01*
X0315898Y0149365D02*
X0320289Y0149365D01*
X0320289Y0150963D02*
X0317094Y0150963D01*
X0318201Y0152562D02*
X0320289Y0152562D01*
X0320289Y0154160D02*
X0313401Y0154160D01*
X0313001Y0154160D02*
X0285615Y0154160D01*
X0287666Y0155759D02*
X0308201Y0155759D01*
X0309346Y0157357D02*
X0289262Y0157357D01*
X0290184Y0158956D02*
X0308593Y0158956D01*
X0307601Y0160554D02*
X0291091Y0160554D01*
X0291519Y0162153D02*
X0307601Y0162153D01*
X0307601Y0163751D02*
X0291948Y0163751D01*
X0292018Y0165350D02*
X0307601Y0165350D01*
X0307601Y0166948D02*
X0292018Y0166948D01*
X0291779Y0168547D02*
X0307903Y0168547D01*
X0318500Y0168547D02*
X0320289Y0168547D01*
X0320289Y0170145D02*
X0291351Y0170145D01*
X0290744Y0171744D02*
X0320289Y0171744D01*
X0320289Y0173342D02*
X0289822Y0173342D01*
X0288636Y0174941D02*
X0320289Y0174941D01*
X0320289Y0176539D02*
X0287037Y0176539D01*
X0269365Y0176539D02*
X0058691Y0176539D01*
X0093851Y0158956D02*
X0094205Y0158956D01*
X0095187Y0157357D02*
X0092869Y0157357D01*
X0102869Y0157357D02*
X0106036Y0157357D01*
X0106048Y0157345D02*
X0106630Y0156922D01*
X0107272Y0156595D01*
X0107957Y0156372D01*
X0108668Y0156260D01*
X0109028Y0156260D01*
X0109388Y0156260D01*
X0110099Y0156372D01*
X0110784Y0156595D01*
X0111426Y0156922D01*
X0112008Y0157345D01*
X0112517Y0157854D01*
X0112941Y0158437D01*
X0113268Y0159079D01*
X0113490Y0159763D01*
X0113603Y0160475D01*
X0113603Y0160835D01*
X0113603Y0161195D01*
X0113490Y0161906D01*
X0113268Y0162591D01*
X0112941Y0163232D01*
X0112517Y0163815D01*
X0112008Y0164324D01*
X0111426Y0164747D01*
X0110784Y0165074D01*
X0110099Y0165297D01*
X0109388Y0165409D01*
X0109028Y0165409D01*
X0109028Y0160835D01*
X0109028Y0160835D01*
X0109028Y0165409D01*
X0108668Y0165409D01*
X0107957Y0165297D01*
X0107272Y0165074D01*
X0106630Y0164747D01*
X0106048Y0164324D01*
X0105538Y0163815D01*
X0105115Y0163232D01*
X0104788Y0162591D01*
X0104566Y0161906D01*
X0104453Y0161195D01*
X0104453Y0160835D01*
X0109028Y0160835D01*
X0113603Y0160835D01*
X0109028Y0160835D01*
X0109028Y0160835D01*
X0109028Y0160835D01*
X0104453Y0160835D01*
X0104453Y0160475D01*
X0104566Y0159763D01*
X0104788Y0159079D01*
X0105115Y0158437D01*
X0105538Y0157854D01*
X0106048Y0157345D01*
X0104851Y0158956D02*
X0103851Y0158956D01*
X0104203Y0160554D02*
X0104453Y0160554D01*
X0104646Y0162153D02*
X0104083Y0162153D01*
X0103421Y0163751D02*
X0105492Y0163751D01*
X0108291Y0165350D02*
X0101650Y0165350D01*
X0102460Y0166948D02*
X0105596Y0166948D01*
X0104374Y0168547D02*
X0103681Y0168547D01*
X0109028Y0165350D02*
X0109028Y0165350D01*
X0109765Y0165350D02*
X0116406Y0165350D01*
X0115596Y0166948D02*
X0112460Y0166948D01*
X0113681Y0168547D02*
X0114374Y0168547D01*
X0114635Y0163751D02*
X0112564Y0163751D01*
X0113410Y0162153D02*
X0113973Y0162153D01*
X0113853Y0160554D02*
X0113603Y0160554D01*
X0113205Y0158956D02*
X0114205Y0158956D01*
X0115187Y0157357D02*
X0112020Y0157357D01*
X0109028Y0157357D02*
X0109028Y0157357D01*
X0109028Y0156260D02*
X0109028Y0160835D01*
X0109028Y0160835D01*
X0109028Y0156260D01*
X0109028Y0158956D02*
X0109028Y0158956D01*
X0109028Y0160554D02*
X0109028Y0160554D01*
X0109028Y0162153D02*
X0109028Y0162153D01*
X0109028Y0163751D02*
X0109028Y0163751D01*
X0121650Y0165350D02*
X0126406Y0165350D01*
X0127272Y0166595D02*
X0126630Y0166922D01*
X0126048Y0167345D01*
X0125538Y0167854D01*
X0125115Y0168437D01*
X0124788Y0169079D01*
X0124566Y0169763D01*
X0124453Y0170475D01*
X0124453Y0170835D01*
X0129028Y0170835D01*
X0129028Y0170835D01*
X0129028Y0175409D01*
X0129388Y0175409D01*
X0130099Y0175297D01*
X0130784Y0175074D01*
X0131426Y0174747D01*
X0132008Y0174324D01*
X0132517Y0173815D01*
X0132941Y0173232D01*
X0133268Y0172591D01*
X0133490Y0171906D01*
X0133603Y0171195D01*
X0133603Y0170835D01*
X0129028Y0170835D01*
X0129028Y0175409D01*
X0128668Y0175409D01*
X0127957Y0175297D01*
X0127272Y0175074D01*
X0126630Y0174747D01*
X0126048Y0174324D01*
X0125538Y0173815D01*
X0125115Y0173232D01*
X0124788Y0172591D01*
X0124566Y0171906D01*
X0124453Y0171195D01*
X0124453Y0170835D01*
X0129028Y0170835D01*
X0129028Y0170835D01*
X0129028Y0170835D01*
X0133603Y0170835D01*
X0133603Y0170475D01*
X0133490Y0169763D01*
X0133268Y0169079D01*
X0132941Y0168437D01*
X0132517Y0167854D01*
X0132008Y0167345D01*
X0131426Y0166922D01*
X0130784Y0166595D01*
X0130099Y0166372D01*
X0129388Y0166260D01*
X0129028Y0166260D01*
X0129028Y0170835D01*
X0129028Y0170835D01*
X0129028Y0166260D01*
X0128668Y0166260D01*
X0127957Y0166372D01*
X0127272Y0166595D01*
X0126594Y0166948D02*
X0122460Y0166948D01*
X0123681Y0168547D02*
X0125059Y0168547D01*
X0124505Y0170145D02*
X0124203Y0170145D01*
X0124203Y0171744D02*
X0124540Y0171744D01*
X0125195Y0173342D02*
X0123590Y0173342D01*
X0122240Y0174941D02*
X0127010Y0174941D01*
X0129028Y0174941D02*
X0129028Y0174941D01*
X0129028Y0173342D02*
X0129028Y0173342D01*
X0129028Y0171744D02*
X0129028Y0171744D01*
X0129028Y0170145D02*
X0129028Y0170145D01*
X0129028Y0168547D02*
X0129028Y0168547D01*
X0129028Y0166948D02*
X0129028Y0166948D01*
X0131462Y0166948D02*
X0135596Y0166948D01*
X0136406Y0165350D02*
X0131650Y0165350D01*
X0133421Y0163751D02*
X0134635Y0163751D01*
X0134374Y0168547D02*
X0132997Y0168547D01*
X0133551Y0170145D02*
X0133853Y0170145D01*
X0133853Y0171744D02*
X0133516Y0171744D01*
X0132861Y0173342D02*
X0134465Y0173342D01*
X0135816Y0174941D02*
X0131046Y0174941D01*
X0142240Y0174941D02*
X0145816Y0174941D01*
X0144465Y0173342D02*
X0143590Y0173342D01*
X0124635Y0163751D02*
X0123421Y0163751D01*
X0123851Y0158956D02*
X0124205Y0158956D01*
X0125187Y0157357D02*
X0122869Y0157357D01*
X0132869Y0157357D02*
X0135187Y0157357D01*
X0134205Y0158956D02*
X0133851Y0158956D01*
X0142869Y0157357D02*
X0145187Y0157357D01*
X0144205Y0158956D02*
X0143851Y0158956D01*
X0115816Y0174941D02*
X0112240Y0174941D01*
X0113590Y0173342D02*
X0114465Y0173342D01*
X0105816Y0174941D02*
X0102240Y0174941D01*
X0103590Y0173342D02*
X0104465Y0173342D01*
X0200296Y0155759D02*
X0207760Y0155759D01*
X0210296Y0155759D02*
X0217760Y0155759D01*
X0220296Y0155759D02*
X0227760Y0155759D01*
X0230296Y0155759D02*
X0237760Y0155759D01*
X0240296Y0155759D02*
X0247760Y0155759D01*
X0250296Y0155759D02*
X0268737Y0155759D01*
X0267141Y0157357D02*
X0262020Y0157357D01*
X0262008Y0157345D02*
X0262517Y0157854D01*
X0262941Y0158437D01*
X0263268Y0159079D01*
X0263490Y0159763D01*
X0263603Y0160475D01*
X0263603Y0160835D01*
X0263603Y0161195D01*
X0263490Y0161906D01*
X0263268Y0162591D01*
X0262941Y0163232D01*
X0262517Y0163815D01*
X0262008Y0164324D01*
X0261426Y0164747D01*
X0260784Y0165074D01*
X0260099Y0165297D01*
X0259388Y0165409D01*
X0259028Y0165409D01*
X0259028Y0160835D01*
X0259028Y0160835D01*
X0259028Y0165409D01*
X0258668Y0165409D01*
X0257957Y0165297D01*
X0257272Y0165074D01*
X0256630Y0164747D01*
X0256048Y0164324D01*
X0255538Y0163815D01*
X0255115Y0163232D01*
X0254788Y0162591D01*
X0254566Y0161906D01*
X0254453Y0161195D01*
X0254453Y0160835D01*
X0259028Y0160835D01*
X0263603Y0160835D01*
X0259028Y0160835D01*
X0259028Y0160835D01*
X0259028Y0160835D01*
X0254453Y0160835D01*
X0254453Y0160475D01*
X0254566Y0159763D01*
X0254788Y0159079D01*
X0255115Y0158437D01*
X0255538Y0157854D01*
X0256048Y0157345D01*
X0256630Y0156922D01*
X0257272Y0156595D01*
X0257957Y0156372D01*
X0258668Y0156260D01*
X0259028Y0156260D01*
X0259388Y0156260D01*
X0260099Y0156372D01*
X0260784Y0156595D01*
X0261426Y0156922D01*
X0262008Y0157345D01*
X0263205Y0158956D02*
X0266218Y0158956D01*
X0265311Y0160554D02*
X0263603Y0160554D01*
X0263410Y0162153D02*
X0264883Y0162153D01*
X0264455Y0163751D02*
X0262564Y0163751D01*
X0264384Y0165350D02*
X0259765Y0165350D01*
X0259028Y0165350D02*
X0259028Y0165350D01*
X0258291Y0165350D02*
X0251650Y0165350D01*
X0252460Y0166948D02*
X0255596Y0166948D01*
X0254374Y0168547D02*
X0253681Y0168547D01*
X0253421Y0163751D02*
X0255492Y0163751D01*
X0254646Y0162153D02*
X0254083Y0162153D01*
X0254203Y0160554D02*
X0254453Y0160554D01*
X0254851Y0158956D02*
X0253851Y0158956D01*
X0252869Y0157357D02*
X0256036Y0157357D01*
X0259028Y0157357D02*
X0259028Y0157357D01*
X0259028Y0156260D02*
X0259028Y0160835D01*
X0259028Y0160835D01*
X0259028Y0156260D01*
X0259028Y0158956D02*
X0259028Y0158956D01*
X0259028Y0160554D02*
X0259028Y0160554D01*
X0259028Y0162153D02*
X0259028Y0162153D01*
X0259028Y0163751D02*
X0259028Y0163751D01*
X0262460Y0166948D02*
X0264384Y0166948D01*
X0264623Y0168547D02*
X0263681Y0168547D01*
X0264203Y0170145D02*
X0265051Y0170145D01*
X0265658Y0171744D02*
X0264203Y0171744D01*
X0263590Y0173342D02*
X0266581Y0173342D01*
X0267767Y0174941D02*
X0262240Y0174941D01*
X0255816Y0174941D02*
X0252240Y0174941D01*
X0253590Y0173342D02*
X0254465Y0173342D01*
X0245816Y0174941D02*
X0242240Y0174941D01*
X0243590Y0173342D02*
X0244465Y0173342D01*
X0235816Y0174941D02*
X0231046Y0174941D01*
X0230784Y0175074D02*
X0230099Y0175297D01*
X0229388Y0175409D01*
X0229028Y0175409D01*
X0229028Y0170835D01*
X0229028Y0170835D01*
X0229028Y0175409D01*
X0228668Y0175409D01*
X0227957Y0175297D01*
X0227272Y0175074D01*
X0226630Y0174747D01*
X0226048Y0174324D01*
X0225538Y0173815D01*
X0225115Y0173232D01*
X0224788Y0172591D01*
X0224566Y0171906D01*
X0224453Y0171195D01*
X0224453Y0170835D01*
X0229028Y0170835D01*
X0233603Y0170835D01*
X0233603Y0171195D01*
X0233490Y0171906D01*
X0233268Y0172591D01*
X0232941Y0173232D01*
X0232517Y0173815D01*
X0232008Y0174324D01*
X0231426Y0174747D01*
X0230784Y0175074D01*
X0229028Y0174941D02*
X0229028Y0174941D01*
X0229028Y0173342D02*
X0229028Y0173342D01*
X0229028Y0171744D02*
X0229028Y0171744D01*
X0229028Y0170835D02*
X0229028Y0170835D01*
X0229028Y0170835D01*
X0233603Y0170835D01*
X0233603Y0170475D01*
X0233490Y0169763D01*
X0233268Y0169079D01*
X0232941Y0168437D01*
X0232517Y0167854D01*
X0232008Y0167345D01*
X0231426Y0166922D01*
X0230784Y0166595D01*
X0230099Y0166372D01*
X0229388Y0166260D01*
X0229028Y0166260D01*
X0229028Y0170835D01*
X0224453Y0170835D01*
X0224453Y0170475D01*
X0224566Y0169763D01*
X0224788Y0169079D01*
X0225115Y0168437D01*
X0225538Y0167854D01*
X0226048Y0167345D01*
X0226630Y0166922D01*
X0227272Y0166595D01*
X0227957Y0166372D01*
X0228668Y0166260D01*
X0229028Y0166260D01*
X0229028Y0170835D01*
X0229028Y0170835D01*
X0229028Y0170145D02*
X0229028Y0170145D01*
X0229028Y0168547D02*
X0229028Y0168547D01*
X0229028Y0166948D02*
X0229028Y0166948D01*
X0231462Y0166948D02*
X0235596Y0166948D01*
X0236406Y0165350D02*
X0231650Y0165350D01*
X0233421Y0163751D02*
X0234635Y0163751D01*
X0234374Y0168547D02*
X0232997Y0168547D01*
X0233551Y0170145D02*
X0233853Y0170145D01*
X0233853Y0171744D02*
X0233516Y0171744D01*
X0232861Y0173342D02*
X0234465Y0173342D01*
X0227010Y0174941D02*
X0222240Y0174941D01*
X0223590Y0173342D02*
X0225195Y0173342D01*
X0224540Y0171744D02*
X0224203Y0171744D01*
X0224203Y0170145D02*
X0224505Y0170145D01*
X0225059Y0168547D02*
X0223681Y0168547D01*
X0222460Y0166948D02*
X0226594Y0166948D01*
X0226406Y0165350D02*
X0221650Y0165350D01*
X0223421Y0163751D02*
X0224635Y0163751D01*
X0224205Y0158956D02*
X0223851Y0158956D01*
X0222869Y0157357D02*
X0225187Y0157357D01*
X0232869Y0157357D02*
X0235187Y0157357D01*
X0234205Y0158956D02*
X0233851Y0158956D01*
X0242869Y0157357D02*
X0245187Y0157357D01*
X0244205Y0158956D02*
X0243851Y0158956D01*
X0216406Y0165350D02*
X0211650Y0165350D01*
X0210784Y0166595D02*
X0211426Y0166922D01*
X0212008Y0167345D01*
X0212517Y0167854D01*
X0212941Y0168437D01*
X0213268Y0169079D01*
X0213490Y0169763D01*
X0213603Y0170475D01*
X0213603Y0170835D01*
X0213603Y0171195D01*
X0213490Y0171906D01*
X0213268Y0172591D01*
X0212941Y0173232D01*
X0212517Y0173815D01*
X0212008Y0174324D01*
X0211426Y0174747D01*
X0210784Y0175074D01*
X0210099Y0175297D01*
X0209388Y0175409D01*
X0209028Y0175409D01*
X0209028Y0170835D01*
X0209028Y0170835D01*
X0209028Y0175409D01*
X0208668Y0175409D01*
X0207957Y0175297D01*
X0207272Y0175074D01*
X0206630Y0174747D01*
X0206048Y0174324D01*
X0205538Y0173815D01*
X0205115Y0173232D01*
X0204788Y0172591D01*
X0204566Y0171906D01*
X0204453Y0171195D01*
X0204453Y0170835D01*
X0209028Y0170835D01*
X0213603Y0170835D01*
X0209028Y0170835D01*
X0209028Y0170835D01*
X0209028Y0170835D01*
X0204453Y0170835D01*
X0204453Y0170475D01*
X0204566Y0169763D01*
X0204788Y0169079D01*
X0205115Y0168437D01*
X0205538Y0167854D01*
X0206048Y0167345D01*
X0206630Y0166922D01*
X0207272Y0166595D01*
X0207957Y0166372D01*
X0208668Y0166260D01*
X0209028Y0166260D01*
X0209388Y0166260D01*
X0210099Y0166372D01*
X0210784Y0166595D01*
X0211462Y0166948D02*
X0215596Y0166948D01*
X0214374Y0168547D02*
X0212997Y0168547D01*
X0213551Y0170145D02*
X0213853Y0170145D01*
X0213853Y0171744D02*
X0213516Y0171744D01*
X0212861Y0173342D02*
X0214465Y0173342D01*
X0215816Y0174941D02*
X0211046Y0174941D01*
X0209028Y0174941D02*
X0209028Y0174941D01*
X0209028Y0173342D02*
X0209028Y0173342D01*
X0209028Y0171744D02*
X0209028Y0171744D01*
X0209028Y0170835D02*
X0209028Y0166260D01*
X0209028Y0170835D01*
X0209028Y0170835D01*
X0209028Y0170145D02*
X0209028Y0170145D01*
X0209028Y0168547D02*
X0209028Y0168547D01*
X0209028Y0166948D02*
X0209028Y0166948D01*
X0206594Y0166948D02*
X0202460Y0166948D01*
X0201650Y0165350D02*
X0206406Y0165350D01*
X0204635Y0163751D02*
X0203421Y0163751D01*
X0203681Y0168547D02*
X0205059Y0168547D01*
X0204505Y0170145D02*
X0204203Y0170145D01*
X0204203Y0171744D02*
X0204540Y0171744D01*
X0205195Y0173342D02*
X0203590Y0173342D01*
X0202240Y0174941D02*
X0207010Y0174941D01*
X0213421Y0163751D02*
X0214635Y0163751D01*
X0214205Y0158956D02*
X0213851Y0158956D01*
X0212869Y0157357D02*
X0215187Y0157357D01*
X0205187Y0157357D02*
X0202869Y0157357D01*
X0203851Y0158956D02*
X0204205Y0158956D01*
X0265955Y0130182D02*
X0310089Y0130182D01*
X0309724Y0128584D02*
X0266495Y0128584D01*
X0267001Y0126985D02*
X0308125Y0126985D01*
X0307601Y0125387D02*
X0266963Y0125387D01*
X0266371Y0123788D02*
X0307601Y0123788D01*
X0307601Y0122190D02*
X0266197Y0122190D01*
X0267212Y0120591D02*
X0308832Y0120591D01*
X0310133Y0118993D02*
X0267647Y0118993D01*
X0267647Y0117394D02*
X0308534Y0117394D01*
X0307601Y0115796D02*
X0267013Y0115796D01*
X0265718Y0114197D02*
X0307601Y0114197D01*
X0307601Y0112599D02*
X0266615Y0112599D01*
X0267039Y0111000D02*
X0308423Y0111000D01*
X0310022Y0109402D02*
X0266925Y0109402D01*
X0266218Y0107803D02*
X0308943Y0107803D01*
X0307601Y0106205D02*
X0266434Y0106205D01*
X0267310Y0104606D02*
X0307601Y0104606D01*
X0307601Y0103008D02*
X0267647Y0103008D01*
X0267577Y0101409D02*
X0308014Y0101409D01*
X0309613Y0099811D02*
X0266915Y0099811D01*
X0266552Y0098212D02*
X0309352Y0098212D01*
X0307754Y0096614D02*
X0267359Y0096614D01*
X0267647Y0095015D02*
X0307601Y0095015D01*
X0307601Y0093417D02*
X0267528Y0093417D01*
X0266866Y0091818D02*
X0307605Y0091818D01*
X0309204Y0090220D02*
X0266671Y0090220D01*
X0267408Y0088621D02*
X0309761Y0088621D01*
X0308163Y0087023D02*
X0267647Y0087023D01*
X0267479Y0085424D02*
X0307601Y0085424D01*
X0307601Y0083826D02*
X0266817Y0083826D01*
X0266789Y0082227D02*
X0307601Y0082227D01*
X0308795Y0080629D02*
X0267457Y0080629D01*
X0267647Y0079030D02*
X0310170Y0079030D01*
X0308571Y0077432D02*
X0267430Y0077432D01*
X0266723Y0075833D02*
X0307601Y0075833D01*
X0307601Y0074235D02*
X0266844Y0074235D01*
X0267506Y0072636D02*
X0307601Y0072636D01*
X0308386Y0071038D02*
X0267647Y0071038D01*
X0267381Y0069439D02*
X0309984Y0069439D01*
X0308980Y0067841D02*
X0266605Y0067841D01*
X0266893Y0066242D02*
X0307601Y0066242D01*
X0307601Y0064643D02*
X0267555Y0064643D01*
X0267647Y0063045D02*
X0307601Y0063045D01*
X0307977Y0061446D02*
X0267332Y0061446D01*
X0266486Y0059848D02*
X0309575Y0059848D01*
X0309389Y0058249D02*
X0266942Y0058249D01*
X0267604Y0056651D02*
X0307791Y0056651D01*
X0307601Y0055052D02*
X0267647Y0055052D01*
X0267283Y0053454D02*
X0307601Y0053454D01*
X0307601Y0051855D02*
X0266368Y0051855D01*
X0266991Y0050257D02*
X0309166Y0050257D01*
X0309798Y0048658D02*
X0267647Y0048658D01*
X0267647Y0047060D02*
X0308200Y0047060D01*
X0307601Y0045461D02*
X0267233Y0045461D01*
X0266249Y0043863D02*
X0307601Y0043863D01*
X0307601Y0042264D02*
X0267041Y0042264D01*
X0267647Y0040666D02*
X0308758Y0040666D01*
X0310207Y0039067D02*
X0267647Y0039067D01*
X0267184Y0037469D02*
X0308609Y0037469D01*
X0307601Y0035870D02*
X0266131Y0035870D01*
X0267090Y0034272D02*
X0307601Y0034272D01*
X0307601Y0032673D02*
X0267647Y0032673D01*
X0267647Y0031075D02*
X0308349Y0031075D01*
X0309947Y0029476D02*
X0267135Y0029476D01*
X0266021Y0027878D02*
X0309018Y0027878D01*
X0307601Y0026279D02*
X0267139Y0026279D01*
X0267647Y0024681D02*
X0307601Y0024681D01*
X0307601Y0023082D02*
X0267647Y0023082D01*
X0267086Y0021484D02*
X0307940Y0021484D01*
X0309538Y0019885D02*
X0265894Y0019885D01*
X0251926Y0019885D02*
X0038475Y0019885D01*
X0038475Y0018287D02*
X0320289Y0018287D01*
X0320289Y0019885D02*
X0316864Y0019885D01*
X0318463Y0021484D02*
X0320289Y0021484D01*
X0320289Y0023082D02*
X0318801Y0023082D01*
X0318801Y0024681D02*
X0320289Y0024681D01*
X0320289Y0026279D02*
X0318801Y0026279D01*
X0317385Y0027878D02*
X0320289Y0027878D01*
X0320289Y0029476D02*
X0316455Y0029476D01*
X0318054Y0031075D02*
X0320289Y0031075D01*
X0320289Y0032673D02*
X0318801Y0032673D01*
X0318801Y0034272D02*
X0320289Y0034272D01*
X0320289Y0035870D02*
X0318801Y0035870D01*
X0317794Y0037469D02*
X0320289Y0037469D01*
X0320289Y0039067D02*
X0316195Y0039067D01*
X0317645Y0040666D02*
X0320289Y0040666D01*
X0320289Y0042264D02*
X0318801Y0042264D01*
X0318801Y0043863D02*
X0320289Y0043863D01*
X0320289Y0045461D02*
X0318801Y0045461D01*
X0318203Y0047060D02*
X0320289Y0047060D01*
X0320289Y0048658D02*
X0316604Y0048658D01*
X0317236Y0050257D02*
X0320289Y0050257D01*
X0320289Y0051855D02*
X0318801Y0051855D01*
X0318801Y0053454D02*
X0320289Y0053454D01*
X0320289Y0055052D02*
X0318801Y0055052D01*
X0318612Y0056651D02*
X0320289Y0056651D01*
X0320289Y0058249D02*
X0317013Y0058249D01*
X0316827Y0059848D02*
X0320289Y0059848D01*
X0320289Y0061446D02*
X0318425Y0061446D01*
X0318801Y0063045D02*
X0320289Y0063045D01*
X0320289Y0064643D02*
X0318801Y0064643D01*
X0318801Y0066242D02*
X0320289Y0066242D01*
X0320289Y0067841D02*
X0317422Y0067841D01*
X0316418Y0069439D02*
X0320289Y0069439D01*
X0320289Y0071038D02*
X0318017Y0071038D01*
X0318801Y0072636D02*
X0320289Y0072636D01*
X0320289Y0074235D02*
X0318801Y0074235D01*
X0318801Y0075833D02*
X0320289Y0075833D01*
X0320289Y0077432D02*
X0317831Y0077432D01*
X0316232Y0079030D02*
X0320289Y0079030D01*
X0320289Y0080629D02*
X0317608Y0080629D01*
X0318801Y0082227D02*
X0320289Y0082227D01*
X0320289Y0083826D02*
X0318801Y0083826D01*
X0318801Y0085424D02*
X0320289Y0085424D01*
X0320289Y0087023D02*
X0318240Y0087023D01*
X0316641Y0088621D02*
X0320289Y0088621D01*
X0320289Y0090220D02*
X0317199Y0090220D01*
X0318797Y0091818D02*
X0320289Y0091818D01*
X0320289Y0093417D02*
X0318801Y0093417D01*
X0318801Y0095015D02*
X0320289Y0095015D01*
X0320289Y0096614D02*
X0318649Y0096614D01*
X0317050Y0098212D02*
X0320289Y0098212D01*
X0320289Y0099811D02*
X0316790Y0099811D01*
X0318388Y0101409D02*
X0320289Y0101409D01*
X0320289Y0103008D02*
X0318801Y0103008D01*
X0318801Y0104606D02*
X0320289Y0104606D01*
X0320289Y0106205D02*
X0318801Y0106205D01*
X0317459Y0107803D02*
X0320289Y0107803D01*
X0320289Y0109402D02*
X0316381Y0109402D01*
X0317979Y0111000D02*
X0320289Y0111000D01*
X0320289Y0112599D02*
X0318801Y0112599D01*
X0318801Y0114197D02*
X0320289Y0114197D01*
X0320289Y0115796D02*
X0318801Y0115796D01*
X0317868Y0117394D02*
X0320289Y0117394D01*
X0320289Y0118993D02*
X0316270Y0118993D01*
X0317570Y0120591D02*
X0320289Y0120591D01*
X0320289Y0122190D02*
X0318801Y0122190D01*
X0318801Y0123788D02*
X0320289Y0123788D01*
X0320289Y0125387D02*
X0318801Y0125387D01*
X0318277Y0126985D02*
X0320289Y0126985D01*
X0320289Y0128584D02*
X0316679Y0128584D01*
X0316313Y0130182D02*
X0320289Y0130182D01*
X0320289Y0131781D02*
X0317911Y0131781D01*
X0318201Y0133379D02*
X0320289Y0133379D01*
X0320289Y0134978D02*
X0318201Y0134978D01*
X0317837Y0136576D02*
X0320289Y0136576D01*
X0320289Y0138175D02*
X0316239Y0138175D01*
X0316753Y0139774D02*
X0320289Y0139774D01*
X0320289Y0141372D02*
X0318351Y0141372D01*
X0318801Y0142971D02*
X0320289Y0142971D01*
X0320289Y0144569D02*
X0318801Y0144569D01*
X0318801Y0146168D02*
X0320289Y0146168D01*
X0320289Y0147766D02*
X0317496Y0147766D01*
X0308201Y0152562D02*
X0282052Y0152562D01*
X0267113Y0136576D02*
X0308565Y0136576D01*
X0308201Y0134978D02*
X0267647Y0134978D01*
X0267647Y0133379D02*
X0308201Y0133379D01*
X0308491Y0131781D02*
X0267111Y0131781D01*
X0317057Y0157357D02*
X0320289Y0157357D01*
X0320289Y0155759D02*
X0318201Y0155759D01*
X0317809Y0158956D02*
X0320289Y0158956D01*
X0320289Y0160554D02*
X0318801Y0160554D01*
X0318801Y0162153D02*
X0320289Y0162153D01*
X0320289Y0163751D02*
X0318801Y0163751D01*
X0318801Y0165350D02*
X0320289Y0165350D01*
X0320289Y0166948D02*
X0318801Y0166948D01*
X0250341Y0085424D02*
X0055450Y0085424D01*
X0055450Y0085450D02*
X0055327Y0085907D01*
X0055090Y0086318D01*
X0054755Y0086653D01*
X0054345Y0086890D01*
X0053887Y0087013D01*
X0046350Y0087013D01*
X0046350Y0082913D01*
X0055450Y0082913D01*
X0055450Y0085450D01*
X0055450Y0083826D02*
X0251003Y0083826D01*
X0251030Y0082227D02*
X0046350Y0082227D01*
X0046350Y0081513D02*
X0055450Y0081513D01*
X0055450Y0078976D01*
X0055327Y0078518D01*
X0055090Y0078107D01*
X0054755Y0077772D01*
X0054345Y0077535D01*
X0053887Y0077413D01*
X0046350Y0077413D01*
X0046350Y0081513D01*
X0046350Y0080629D02*
X0044950Y0080629D01*
X0044950Y0079030D02*
X0046350Y0079030D01*
X0046350Y0077432D02*
X0044950Y0077432D01*
X0038475Y0075833D02*
X0251096Y0075833D01*
X0250976Y0074235D02*
X0038475Y0074235D01*
X0038475Y0072636D02*
X0250313Y0072636D01*
X0250173Y0071038D02*
X0038475Y0071038D01*
X0038475Y0069439D02*
X0250439Y0069439D01*
X0251215Y0067841D02*
X0038475Y0067841D01*
X0044950Y0066242D02*
X0046350Y0066242D01*
X0046350Y0067013D02*
X0046350Y0062913D01*
X0055450Y0062913D01*
X0055450Y0065450D01*
X0055327Y0065907D01*
X0055090Y0066318D01*
X0054755Y0066653D01*
X0054345Y0066890D01*
X0053887Y0067013D01*
X0046350Y0067013D01*
X0046350Y0064643D02*
X0044950Y0064643D01*
X0044950Y0063045D02*
X0046350Y0063045D01*
X0046350Y0061513D02*
X0055450Y0061513D01*
X0055450Y0058976D01*
X0055327Y0058518D01*
X0055090Y0058107D01*
X0054755Y0057772D01*
X0054345Y0057535D01*
X0053887Y0057413D01*
X0046350Y0057413D01*
X0046350Y0061513D01*
X0046350Y0061446D02*
X0044950Y0061446D01*
X0044950Y0059848D02*
X0046350Y0059848D01*
X0046350Y0058249D02*
X0044950Y0058249D01*
X0038475Y0056651D02*
X0250215Y0056651D01*
X0250173Y0055052D02*
X0038475Y0055052D01*
X0038475Y0053454D02*
X0250537Y0053454D01*
X0251452Y0051855D02*
X0038475Y0051855D01*
X0038475Y0050257D02*
X0250828Y0050257D01*
X0250173Y0048658D02*
X0038475Y0048658D01*
X0038475Y0047060D02*
X0250173Y0047060D01*
X0250586Y0045461D02*
X0038475Y0045461D01*
X0038475Y0043863D02*
X0251570Y0043863D01*
X0250779Y0042264D02*
X0038475Y0042264D01*
X0038475Y0040666D02*
X0250173Y0040666D01*
X0250173Y0039067D02*
X0038475Y0039067D01*
X0038475Y0037469D02*
X0250635Y0037469D01*
X0251689Y0035870D02*
X0038475Y0035870D01*
X0038475Y0034272D02*
X0250730Y0034272D01*
X0250173Y0032673D02*
X0066336Y0032673D01*
X0066694Y0032315D02*
X0065548Y0033461D01*
X0064051Y0034081D01*
X0062430Y0034081D01*
X0060933Y0033461D01*
X0059787Y0032315D01*
X0059167Y0030818D01*
X0059167Y0029198D01*
X0059787Y0027701D01*
X0060933Y0026555D01*
X0062430Y0025935D01*
X0064051Y0025935D01*
X0065548Y0026555D01*
X0066694Y0027701D01*
X0067314Y0029198D01*
X0067314Y0030818D01*
X0066694Y0032315D01*
X0067207Y0031075D02*
X0250173Y0031075D01*
X0250684Y0029476D02*
X0067314Y0029476D01*
X0066767Y0027878D02*
X0251799Y0027878D01*
X0250681Y0026279D02*
X0064883Y0026279D01*
X0061598Y0026279D02*
X0049922Y0026279D01*
X0050587Y0026555D02*
X0051733Y0027701D01*
X0052353Y0029198D01*
X0052353Y0030818D01*
X0051733Y0032315D01*
X0050587Y0033461D01*
X0049090Y0034081D01*
X0047470Y0034081D01*
X0045973Y0033461D01*
X0044827Y0032315D01*
X0044207Y0030818D01*
X0044207Y0029198D01*
X0044827Y0027701D01*
X0045973Y0026555D01*
X0047470Y0025935D01*
X0049090Y0025935D01*
X0050587Y0026555D01*
X0051806Y0027878D02*
X0059714Y0027878D01*
X0059167Y0029476D02*
X0052353Y0029476D01*
X0052247Y0031075D02*
X0059274Y0031075D01*
X0060146Y0032673D02*
X0051375Y0032673D01*
X0045185Y0032673D02*
X0038475Y0032673D01*
X0038475Y0031075D02*
X0044313Y0031075D01*
X0044207Y0029476D02*
X0038475Y0029476D01*
X0038475Y0027878D02*
X0044753Y0027878D01*
X0046638Y0026279D02*
X0038475Y0026279D01*
X0038475Y0024681D02*
X0250173Y0024681D01*
X0250173Y0023082D02*
X0038475Y0023082D01*
X0038475Y0021484D02*
X0250733Y0021484D01*
X0250877Y0058249D02*
X0055172Y0058249D01*
X0055450Y0059848D02*
X0251333Y0059848D01*
X0250488Y0061446D02*
X0055450Y0061446D01*
X0055450Y0063045D02*
X0250173Y0063045D01*
X0250264Y0064643D02*
X0055450Y0064643D01*
X0055134Y0066242D02*
X0250926Y0066242D01*
X0250390Y0077432D02*
X0053958Y0077432D01*
X0055450Y0079030D02*
X0250173Y0079030D01*
X0250363Y0080629D02*
X0055450Y0080629D01*
X0046350Y0083826D02*
X0044950Y0083826D01*
X0044950Y0085424D02*
X0046350Y0085424D01*
X0065996Y0062843D02*
X0069146Y0059693D01*
X0069146Y0039457D01*
X0069146Y0035520D01*
X0068359Y0035520D01*
X0069146Y0039457D02*
X0061272Y0039457D01*
X0038475Y0016688D02*
X0320289Y0016688D01*
D19*
X0278201Y0165835D03*
X0049855Y0165835D03*
M02*
