G75*
%MOIN*%
%OFA0B0*%
%FSLAX25Y25*%
%IPPOS*%
%LPD*%
%AMOC8*
5,1,8,0,0,1.08239X$1,22.5*
%
%ADD10C,0.00000*%
%ADD11R,0.09843X0.05906*%
%ADD12R,0.27559X0.05906*%
%ADD13R,0.27559X0.04724*%
%ADD14C,0.05550*%
%ADD15R,0.06400X0.06400*%
%ADD16OC8,0.06400*%
%ADD17R,0.16000X0.06000*%
%ADD18R,0.16000X0.05000*%
%ADD19R,0.04724X0.04724*%
%ADD20R,0.03937X0.05906*%
%ADD21R,0.01575X0.05709*%
%ADD22R,0.07087X0.05906*%
%ADD23C,0.06337*%
%ADD24C,0.03200*%
%ADD25C,0.01600*%
%ADD26C,0.04362*%
%ADD27C,0.05000*%
%ADD28C,0.01000*%
%ADD29C,0.22835*%
D10*
X0036075Y0013472D02*
X0036075Y0179614D01*
X0322689Y0179614D01*
X0322689Y0013472D01*
X0036075Y0013472D01*
X0046607Y0030008D02*
X0046609Y0030089D01*
X0046615Y0030171D01*
X0046625Y0030252D01*
X0046639Y0030332D01*
X0046656Y0030411D01*
X0046678Y0030490D01*
X0046703Y0030567D01*
X0046732Y0030644D01*
X0046765Y0030718D01*
X0046802Y0030791D01*
X0046841Y0030862D01*
X0046885Y0030931D01*
X0046931Y0030998D01*
X0046981Y0031062D01*
X0047034Y0031124D01*
X0047090Y0031184D01*
X0047148Y0031240D01*
X0047210Y0031294D01*
X0047274Y0031345D01*
X0047340Y0031392D01*
X0047408Y0031436D01*
X0047479Y0031477D01*
X0047551Y0031514D01*
X0047626Y0031548D01*
X0047701Y0031578D01*
X0047779Y0031604D01*
X0047857Y0031627D01*
X0047936Y0031645D01*
X0048016Y0031660D01*
X0048097Y0031671D01*
X0048178Y0031678D01*
X0048260Y0031681D01*
X0048341Y0031680D01*
X0048422Y0031675D01*
X0048503Y0031666D01*
X0048584Y0031653D01*
X0048664Y0031636D01*
X0048742Y0031616D01*
X0048820Y0031591D01*
X0048897Y0031563D01*
X0048972Y0031531D01*
X0049045Y0031496D01*
X0049116Y0031457D01*
X0049186Y0031414D01*
X0049253Y0031369D01*
X0049319Y0031320D01*
X0049381Y0031268D01*
X0049441Y0031212D01*
X0049498Y0031154D01*
X0049553Y0031094D01*
X0049604Y0031030D01*
X0049652Y0030965D01*
X0049697Y0030897D01*
X0049739Y0030827D01*
X0049777Y0030755D01*
X0049812Y0030681D01*
X0049843Y0030606D01*
X0049870Y0030529D01*
X0049893Y0030451D01*
X0049913Y0030372D01*
X0049929Y0030292D01*
X0049941Y0030211D01*
X0049949Y0030130D01*
X0049953Y0030049D01*
X0049953Y0029967D01*
X0049949Y0029886D01*
X0049941Y0029805D01*
X0049929Y0029724D01*
X0049913Y0029644D01*
X0049893Y0029565D01*
X0049870Y0029487D01*
X0049843Y0029410D01*
X0049812Y0029335D01*
X0049777Y0029261D01*
X0049739Y0029189D01*
X0049697Y0029119D01*
X0049652Y0029051D01*
X0049604Y0028986D01*
X0049553Y0028922D01*
X0049498Y0028862D01*
X0049441Y0028804D01*
X0049381Y0028748D01*
X0049319Y0028696D01*
X0049253Y0028647D01*
X0049186Y0028602D01*
X0049117Y0028559D01*
X0049045Y0028520D01*
X0048972Y0028485D01*
X0048897Y0028453D01*
X0048820Y0028425D01*
X0048742Y0028400D01*
X0048664Y0028380D01*
X0048584Y0028363D01*
X0048503Y0028350D01*
X0048422Y0028341D01*
X0048341Y0028336D01*
X0048260Y0028335D01*
X0048178Y0028338D01*
X0048097Y0028345D01*
X0048016Y0028356D01*
X0047936Y0028371D01*
X0047857Y0028389D01*
X0047779Y0028412D01*
X0047701Y0028438D01*
X0047626Y0028468D01*
X0047551Y0028502D01*
X0047479Y0028539D01*
X0047408Y0028580D01*
X0047340Y0028624D01*
X0047274Y0028671D01*
X0047210Y0028722D01*
X0047148Y0028776D01*
X0047090Y0028832D01*
X0047034Y0028892D01*
X0046981Y0028954D01*
X0046931Y0029018D01*
X0046885Y0029085D01*
X0046841Y0029154D01*
X0046802Y0029225D01*
X0046765Y0029298D01*
X0046732Y0029372D01*
X0046703Y0029449D01*
X0046678Y0029526D01*
X0046656Y0029605D01*
X0046639Y0029684D01*
X0046625Y0029764D01*
X0046615Y0029845D01*
X0046609Y0029927D01*
X0046607Y0030008D01*
X0061568Y0030008D02*
X0061570Y0030089D01*
X0061576Y0030171D01*
X0061586Y0030252D01*
X0061600Y0030332D01*
X0061617Y0030411D01*
X0061639Y0030490D01*
X0061664Y0030567D01*
X0061693Y0030644D01*
X0061726Y0030718D01*
X0061763Y0030791D01*
X0061802Y0030862D01*
X0061846Y0030931D01*
X0061892Y0030998D01*
X0061942Y0031062D01*
X0061995Y0031124D01*
X0062051Y0031184D01*
X0062109Y0031240D01*
X0062171Y0031294D01*
X0062235Y0031345D01*
X0062301Y0031392D01*
X0062369Y0031436D01*
X0062440Y0031477D01*
X0062512Y0031514D01*
X0062587Y0031548D01*
X0062662Y0031578D01*
X0062740Y0031604D01*
X0062818Y0031627D01*
X0062897Y0031645D01*
X0062977Y0031660D01*
X0063058Y0031671D01*
X0063139Y0031678D01*
X0063221Y0031681D01*
X0063302Y0031680D01*
X0063383Y0031675D01*
X0063464Y0031666D01*
X0063545Y0031653D01*
X0063625Y0031636D01*
X0063703Y0031616D01*
X0063781Y0031591D01*
X0063858Y0031563D01*
X0063933Y0031531D01*
X0064006Y0031496D01*
X0064077Y0031457D01*
X0064147Y0031414D01*
X0064214Y0031369D01*
X0064280Y0031320D01*
X0064342Y0031268D01*
X0064402Y0031212D01*
X0064459Y0031154D01*
X0064514Y0031094D01*
X0064565Y0031030D01*
X0064613Y0030965D01*
X0064658Y0030897D01*
X0064700Y0030827D01*
X0064738Y0030755D01*
X0064773Y0030681D01*
X0064804Y0030606D01*
X0064831Y0030529D01*
X0064854Y0030451D01*
X0064874Y0030372D01*
X0064890Y0030292D01*
X0064902Y0030211D01*
X0064910Y0030130D01*
X0064914Y0030049D01*
X0064914Y0029967D01*
X0064910Y0029886D01*
X0064902Y0029805D01*
X0064890Y0029724D01*
X0064874Y0029644D01*
X0064854Y0029565D01*
X0064831Y0029487D01*
X0064804Y0029410D01*
X0064773Y0029335D01*
X0064738Y0029261D01*
X0064700Y0029189D01*
X0064658Y0029119D01*
X0064613Y0029051D01*
X0064565Y0028986D01*
X0064514Y0028922D01*
X0064459Y0028862D01*
X0064402Y0028804D01*
X0064342Y0028748D01*
X0064280Y0028696D01*
X0064214Y0028647D01*
X0064147Y0028602D01*
X0064078Y0028559D01*
X0064006Y0028520D01*
X0063933Y0028485D01*
X0063858Y0028453D01*
X0063781Y0028425D01*
X0063703Y0028400D01*
X0063625Y0028380D01*
X0063545Y0028363D01*
X0063464Y0028350D01*
X0063383Y0028341D01*
X0063302Y0028336D01*
X0063221Y0028335D01*
X0063139Y0028338D01*
X0063058Y0028345D01*
X0062977Y0028356D01*
X0062897Y0028371D01*
X0062818Y0028389D01*
X0062740Y0028412D01*
X0062662Y0028438D01*
X0062587Y0028468D01*
X0062512Y0028502D01*
X0062440Y0028539D01*
X0062369Y0028580D01*
X0062301Y0028624D01*
X0062235Y0028671D01*
X0062171Y0028722D01*
X0062109Y0028776D01*
X0062051Y0028832D01*
X0061995Y0028892D01*
X0061942Y0028954D01*
X0061892Y0029018D01*
X0061846Y0029085D01*
X0061802Y0029154D01*
X0061763Y0029225D01*
X0061726Y0029298D01*
X0061693Y0029372D01*
X0061664Y0029449D01*
X0061639Y0029526D01*
X0061617Y0029605D01*
X0061600Y0029684D01*
X0061586Y0029764D01*
X0061576Y0029845D01*
X0061570Y0029927D01*
X0061568Y0030008D01*
D11*
X0055760Y0021346D03*
X0278044Y0023945D03*
X0278044Y0031819D03*
X0278044Y0039693D03*
X0278044Y0047567D03*
X0278044Y0055441D03*
X0278044Y0063315D03*
X0278044Y0071189D03*
X0278044Y0079063D03*
X0278044Y0086937D03*
X0278044Y0094811D03*
X0278044Y0102685D03*
X0278044Y0110559D03*
X0278044Y0118433D03*
X0278044Y0126307D03*
X0278044Y0134181D03*
D12*
X0075681Y0081740D03*
X0075839Y0062843D03*
D13*
X0075681Y0072291D03*
D14*
X0079028Y0160835D03*
X0089028Y0160835D03*
X0099028Y0160835D03*
X0109028Y0160835D03*
X0119028Y0160835D03*
X0129028Y0160835D03*
X0139028Y0160835D03*
X0149028Y0160835D03*
X0159028Y0160835D03*
X0169028Y0160835D03*
X0179028Y0160835D03*
X0189028Y0160835D03*
X0199028Y0160835D03*
X0209028Y0160835D03*
X0219028Y0160835D03*
X0229028Y0160835D03*
X0239028Y0160835D03*
X0249028Y0160835D03*
X0259028Y0160835D03*
X0259028Y0170835D03*
X0249028Y0170835D03*
X0239028Y0170835D03*
X0229028Y0170835D03*
X0219028Y0170835D03*
X0209028Y0170835D03*
X0199028Y0170835D03*
X0189028Y0170835D03*
X0179028Y0170835D03*
X0169028Y0170835D03*
X0159028Y0170835D03*
X0149028Y0170835D03*
X0139028Y0170835D03*
X0129028Y0170835D03*
X0119028Y0170835D03*
X0109028Y0170835D03*
X0099028Y0170835D03*
X0089028Y0170835D03*
X0079028Y0170835D03*
X0069028Y0170835D03*
X0069028Y0160835D03*
D15*
X0313201Y0164142D03*
D16*
X0313201Y0154142D03*
X0313201Y0144142D03*
X0313201Y0134142D03*
X0313201Y0124142D03*
X0313201Y0114142D03*
X0313201Y0104142D03*
X0313201Y0094142D03*
X0313201Y0084142D03*
X0313201Y0074142D03*
X0313201Y0064142D03*
X0313201Y0054142D03*
X0313201Y0044142D03*
X0313201Y0034142D03*
X0313201Y0024142D03*
D17*
X0045650Y0062213D03*
X0045650Y0082213D03*
D18*
X0045650Y0072213D03*
D19*
X0042374Y0129024D03*
X0042374Y0137291D03*
X0058122Y0137291D03*
X0058122Y0129024D03*
X0069933Y0129024D03*
X0069933Y0137291D03*
D20*
X0069933Y0120323D03*
X0069933Y0112921D03*
X0058122Y0112921D03*
X0058122Y0120323D03*
X0042374Y0120323D03*
X0042374Y0112921D03*
D21*
X0050642Y0032075D03*
X0053201Y0032075D03*
X0055760Y0032075D03*
X0058319Y0032075D03*
X0060878Y0032075D03*
D22*
X0070268Y0021346D03*
X0041252Y0021346D03*
D23*
X0255741Y0023945D02*
X0262078Y0023945D01*
X0262078Y0031819D02*
X0255741Y0031819D01*
X0255741Y0039693D02*
X0262078Y0039693D01*
X0262078Y0047567D02*
X0255741Y0047567D01*
X0255741Y0055441D02*
X0262078Y0055441D01*
X0262078Y0063315D02*
X0255741Y0063315D01*
X0255741Y0071189D02*
X0262078Y0071189D01*
X0262078Y0079063D02*
X0255741Y0079063D01*
X0255741Y0086937D02*
X0262078Y0086937D01*
X0262078Y0094811D02*
X0255741Y0094811D01*
X0255741Y0102685D02*
X0262078Y0102685D01*
X0262078Y0110559D02*
X0255741Y0110559D01*
X0255741Y0118433D02*
X0262078Y0118433D01*
X0262078Y0126307D02*
X0255741Y0126307D01*
X0255741Y0134181D02*
X0262078Y0134181D01*
D24*
X0258910Y0134181D02*
X0278044Y0134181D01*
X0278595Y0134732D01*
X0279382Y0133945D01*
X0284107Y0133945D01*
X0285681Y0135520D01*
X0285681Y0144969D01*
X0304855Y0164142D01*
X0313201Y0164142D01*
X0312374Y0144181D02*
X0296705Y0144181D01*
X0291981Y0139457D01*
X0291981Y0123709D01*
X0286705Y0118433D01*
X0278044Y0118433D01*
X0258910Y0118433D01*
X0207493Y0118433D01*
X0193949Y0132764D01*
X0193949Y0150087D01*
X0193556Y0150480D01*
X0193752Y0150283D02*
X0193949Y0150087D01*
X0186469Y0155205D02*
X0186469Y0128039D01*
X0202217Y0111504D01*
X0225445Y0111504D01*
X0234264Y0102685D01*
X0258910Y0102685D01*
X0258910Y0102606D01*
X0278044Y0102606D01*
X0278044Y0102685D01*
X0289067Y0102685D01*
X0310524Y0124142D01*
X0313201Y0124142D01*
X0303792Y0133945D02*
X0299067Y0129220D01*
X0299067Y0121346D01*
X0288280Y0110559D01*
X0278044Y0110559D01*
X0258910Y0110559D01*
X0278044Y0110480D02*
X0278044Y0110559D01*
X0278044Y0118354D02*
X0278044Y0118433D01*
X0278044Y0126228D02*
X0278044Y0126307D01*
X0258910Y0126307D01*
X0278044Y0134102D02*
X0278044Y0134181D01*
X0303792Y0133945D02*
X0313201Y0133945D01*
X0313201Y0134142D01*
X0313201Y0144142D02*
X0312374Y0144181D01*
X0313201Y0114142D02*
X0312532Y0113472D01*
X0308516Y0113472D01*
X0289855Y0094811D01*
X0280170Y0094811D01*
X0280170Y0094732D01*
X0258910Y0094732D01*
X0258910Y0094811D01*
X0258910Y0086937D02*
X0258910Y0086858D01*
X0278044Y0086858D01*
X0278044Y0086937D01*
X0235052Y0086937D01*
X0217178Y0104811D01*
X0192768Y0104811D01*
X0179382Y0108748D02*
X0179382Y0160480D01*
X0179028Y0160835D01*
X0174264Y0150087D02*
X0045918Y0150087D01*
X0042374Y0146543D01*
X0042374Y0137488D01*
X0042768Y0137094D01*
X0048674Y0137094D01*
X0050248Y0135520D01*
X0050248Y0114260D01*
X0051823Y0112685D01*
X0057886Y0112685D01*
X0058122Y0112921D01*
X0058122Y0120323D02*
X0058122Y0129024D01*
X0058122Y0137291D02*
X0069933Y0137291D01*
X0124067Y0137291D01*
X0133713Y0127646D01*
X0133713Y0046543D01*
X0054185Y0046543D01*
X0051036Y0043394D01*
X0051036Y0037094D01*
X0055760Y0021346D02*
X0041252Y0021346D01*
X0055760Y0021346D02*
X0061272Y0021346D01*
X0070268Y0021346D01*
X0133713Y0046543D02*
X0220721Y0046543D01*
X0242532Y0023945D01*
X0258910Y0023945D01*
X0276233Y0023945D01*
X0276233Y0023709D01*
X0275445Y0023709D01*
X0275445Y0023945D01*
X0278044Y0023945D01*
X0313004Y0023945D01*
X0313201Y0024142D01*
X0313201Y0034142D02*
X0300052Y0034142D01*
X0297729Y0031819D01*
X0278044Y0031819D01*
X0258910Y0031819D01*
X0258910Y0039693D02*
X0278044Y0039693D01*
X0278044Y0039614D01*
X0278044Y0039693D02*
X0296941Y0039693D01*
X0301430Y0044181D01*
X0311587Y0044181D01*
X0313201Y0044142D01*
X0313201Y0054142D02*
X0302729Y0054142D01*
X0296154Y0047567D01*
X0278044Y0047567D01*
X0258910Y0047567D01*
X0258910Y0055441D02*
X0278044Y0055441D01*
X0278044Y0055362D01*
X0278044Y0055441D02*
X0294579Y0055441D01*
X0303280Y0064142D01*
X0313201Y0064142D01*
X0313201Y0074142D02*
X0303831Y0074142D01*
X0293004Y0063315D01*
X0278044Y0063315D01*
X0258910Y0063315D01*
X0258910Y0071189D02*
X0216154Y0071189D01*
X0179382Y0108748D01*
X0214028Y0092213D02*
X0226390Y0079063D01*
X0258910Y0079063D01*
X0278044Y0079063D01*
X0278044Y0078984D01*
X0278044Y0079063D02*
X0291430Y0079063D01*
X0306508Y0094142D01*
X0313201Y0094142D01*
X0313004Y0084339D02*
X0305367Y0084339D01*
X0292217Y0071189D01*
X0278044Y0071189D01*
X0258910Y0071189D01*
X0278044Y0071110D02*
X0278044Y0071189D01*
X0278044Y0063315D02*
X0278044Y0063236D01*
X0278044Y0047567D02*
X0278044Y0047488D01*
X0278044Y0031819D02*
X0278044Y0031740D01*
X0313201Y0084142D02*
X0313004Y0084339D01*
X0307729Y0104024D02*
X0290642Y0086937D01*
X0278044Y0086937D01*
X0278044Y0094811D02*
X0280170Y0094811D01*
X0307729Y0104024D02*
X0313083Y0104024D01*
X0313201Y0104142D01*
X0103004Y0063079D02*
X0103004Y0062291D01*
X0102217Y0063079D01*
X0079382Y0062291D02*
X0076390Y0062291D01*
X0075839Y0062843D01*
X0079304Y0062213D02*
X0079382Y0062291D01*
X0075681Y0081740D02*
X0075681Y0081976D01*
X0069146Y0081976D01*
X0069933Y0082764D01*
X0069933Y0112921D01*
X0069933Y0120323D02*
X0069933Y0129024D01*
X0048674Y0137094D02*
X0048477Y0137291D01*
X0042374Y0137291D01*
X0042374Y0129024D02*
X0042374Y0120323D01*
X0042374Y0112921D02*
X0042374Y0081976D01*
X0042611Y0082213D01*
X0045650Y0082213D01*
X0042374Y0081976D02*
X0069146Y0081976D01*
D25*
X0068359Y0041031D02*
X0058122Y0041031D01*
X0057335Y0040244D01*
X0057335Y0036529D01*
X0059769Y0036529D01*
X0060707Y0035592D01*
X0060707Y0032386D01*
X0061273Y0032952D01*
X0062550Y0033481D01*
X0063931Y0033481D01*
X0065208Y0032952D01*
X0066185Y0031975D01*
X0066714Y0030699D01*
X0066714Y0029317D01*
X0066185Y0028040D01*
X0065208Y0027063D01*
X0063931Y0026535D01*
X0062550Y0026535D01*
X0061273Y0027063D01*
X0060296Y0028040D01*
X0060265Y0028116D01*
X0059769Y0027620D01*
X0057335Y0027620D01*
X0057335Y0023709D01*
X0067571Y0023709D01*
X0069146Y0025283D01*
X0069146Y0040244D01*
X0068359Y0041031D01*
X0068724Y0040666D02*
X0057757Y0040666D01*
X0057335Y0039067D02*
X0069146Y0039067D01*
X0069146Y0037469D02*
X0057335Y0037469D01*
X0060428Y0035870D02*
X0069146Y0035870D01*
X0069146Y0034272D02*
X0060707Y0034272D01*
X0060707Y0032673D02*
X0060994Y0032673D01*
X0060878Y0032075D02*
X0060878Y0039063D01*
X0061272Y0039457D01*
X0065487Y0032673D02*
X0069146Y0032673D01*
X0069146Y0031075D02*
X0066558Y0031075D01*
X0066714Y0029476D02*
X0069146Y0029476D01*
X0069146Y0027878D02*
X0066022Y0027878D01*
X0069146Y0026279D02*
X0057335Y0026279D01*
X0057335Y0024681D02*
X0068543Y0024681D01*
X0061272Y0021346D02*
X0060878Y0021740D01*
X0060878Y0032075D01*
X0060459Y0027878D02*
X0060027Y0027878D01*
X0050642Y0032075D02*
X0050642Y0036701D01*
X0051036Y0037094D01*
X0193556Y0150480D02*
X0193949Y0150874D01*
X0193949Y0150087D01*
X0193949Y0150874D02*
X0193949Y0165913D01*
X0189028Y0170835D01*
X0184107Y0165756D02*
X0179028Y0170835D01*
X0184107Y0165756D02*
X0184107Y0157567D01*
X0186469Y0155205D01*
D26*
X0193949Y0150087D03*
X0174264Y0150087D03*
X0192768Y0104811D03*
X0214028Y0092213D03*
X0103792Y0079614D03*
X0103004Y0063079D03*
X0061272Y0039457D03*
X0068359Y0035520D03*
X0063634Y0022134D03*
D27*
X0069146Y0062843D02*
X0044705Y0062843D01*
X0044706Y0062843D02*
X0044718Y0062789D01*
X0044734Y0062737D01*
X0044754Y0062686D01*
X0044777Y0062636D01*
X0044804Y0062588D01*
X0044834Y0062542D01*
X0044866Y0062498D01*
X0044902Y0062456D01*
X0044941Y0062417D01*
X0044982Y0062381D01*
X0045025Y0062347D01*
X0045071Y0062317D01*
X0045118Y0062290D01*
X0045168Y0062266D01*
X0045218Y0062245D01*
X0045271Y0062228D01*
X0045324Y0062215D01*
X0045378Y0062205D01*
X0045432Y0062199D01*
X0045487Y0062197D01*
X0045542Y0062198D01*
X0045596Y0062204D01*
X0045650Y0062213D01*
X0045650Y0072213D02*
X0075603Y0072213D01*
X0075603Y0072212D02*
X0075618Y0072214D01*
X0075633Y0072218D01*
X0075647Y0072225D01*
X0075659Y0072235D01*
X0075669Y0072247D01*
X0075676Y0072261D01*
X0075680Y0072276D01*
X0075682Y0072291D01*
X0075839Y0062843D02*
X0069146Y0062843D01*
X0069382Y0063079D01*
X0102217Y0063079D01*
X0103004Y0063079D01*
X0105367Y0065441D01*
X0105367Y0078039D01*
X0103792Y0079614D01*
X0101430Y0081976D01*
X0075918Y0081976D01*
X0075890Y0081974D01*
X0075862Y0081969D01*
X0075834Y0081961D01*
X0075808Y0081949D01*
X0075784Y0081934D01*
X0075762Y0081917D01*
X0075741Y0081896D01*
X0075724Y0081874D01*
X0075709Y0081850D01*
X0075697Y0081824D01*
X0075689Y0081796D01*
X0075684Y0081768D01*
X0075682Y0081740D01*
D28*
X0054973Y0048118D02*
X0045524Y0048118D01*
X0043949Y0046543D01*
X0043949Y0027646D01*
X0045524Y0026071D01*
X0050248Y0026071D01*
X0051036Y0026858D01*
X0051036Y0028369D01*
X0050970Y0028210D01*
X0050077Y0027318D01*
X0048911Y0026835D01*
X0047649Y0026835D01*
X0046482Y0027318D01*
X0045590Y0028210D01*
X0045107Y0029377D01*
X0045107Y0030639D01*
X0045590Y0031805D01*
X0046482Y0032698D01*
X0047649Y0033181D01*
X0048911Y0033181D01*
X0050077Y0032698D01*
X0050970Y0031805D01*
X0051036Y0031647D01*
X0051036Y0037882D01*
X0051823Y0038669D01*
X0051823Y0041819D01*
X0053398Y0043394D01*
X0055760Y0043394D01*
X0056548Y0044181D01*
X0056548Y0046543D01*
X0054973Y0048118D01*
X0055082Y0048009D02*
X0045415Y0048009D01*
X0044417Y0047011D02*
X0056080Y0047011D01*
X0056548Y0046012D02*
X0043949Y0046012D01*
X0043949Y0045014D02*
X0056548Y0045014D01*
X0056382Y0044015D02*
X0043949Y0044015D01*
X0043949Y0043017D02*
X0053021Y0043017D01*
X0052023Y0042018D02*
X0043949Y0042018D01*
X0043949Y0041020D02*
X0051823Y0041020D01*
X0051823Y0040021D02*
X0043949Y0040021D01*
X0043949Y0039023D02*
X0051823Y0039023D01*
X0051178Y0038024D02*
X0043949Y0038024D01*
X0043949Y0037026D02*
X0051036Y0037026D01*
X0051036Y0036027D02*
X0043949Y0036027D01*
X0043949Y0035029D02*
X0051036Y0035029D01*
X0051036Y0034030D02*
X0043949Y0034030D01*
X0043949Y0033032D02*
X0047288Y0033032D01*
X0045817Y0032033D02*
X0043949Y0032033D01*
X0043949Y0031035D02*
X0045271Y0031035D01*
X0045107Y0030036D02*
X0043949Y0030036D01*
X0043949Y0029038D02*
X0045247Y0029038D01*
X0045761Y0028039D02*
X0043949Y0028039D01*
X0044554Y0027041D02*
X0047152Y0027041D01*
X0049408Y0027041D02*
X0051036Y0027041D01*
X0051036Y0028039D02*
X0050799Y0028039D01*
X0050742Y0032033D02*
X0051036Y0032033D01*
X0051036Y0033032D02*
X0049272Y0033032D01*
D29*
X0049855Y0165835D03*
X0278201Y0165835D03*
M02*
