G75*
%MOIN*%
%OFA0B0*%
%FSLAX25Y25*%
%IPPOS*%
%LPD*%
%AMOC8*
5,1,8,0,0,1.08239X$1,22.5*
%
%ADD10R,0.10643X0.06706*%
%ADD11R,0.28359X0.06706*%
%ADD12R,0.28359X0.05524*%
%ADD13C,0.06350*%
%ADD14R,0.07200X0.07200*%
%ADD15OC8,0.07200*%
%ADD16R,0.16800X0.06800*%
%ADD17R,0.16800X0.05800*%
%ADD18R,0.05524X0.05524*%
%ADD19R,0.04737X0.06706*%
%ADD20R,0.02375X0.06509*%
%ADD21C,0.04146*%
%ADD22R,0.07874X0.06693*%
%ADD23R,0.10630X0.06693*%
%ADD24C,0.07137*%
%ADD25C,0.23635*%
D10*
X0278044Y0023945D03*
X0278044Y0031819D03*
X0278044Y0039693D03*
X0278044Y0047567D03*
X0278044Y0055441D03*
X0278044Y0063315D03*
X0278044Y0071189D03*
X0278044Y0079063D03*
X0278044Y0086937D03*
X0278044Y0094811D03*
X0278044Y0102685D03*
X0278044Y0110559D03*
X0278044Y0118433D03*
X0278044Y0126307D03*
X0278044Y0134181D03*
D11*
X0075681Y0081740D03*
X0075839Y0062843D03*
D12*
X0075681Y0072291D03*
D13*
X0079028Y0160835D03*
X0089028Y0160835D03*
X0099028Y0160835D03*
X0109028Y0160835D03*
X0119028Y0160835D03*
X0129028Y0160835D03*
X0139028Y0160835D03*
X0149028Y0160835D03*
X0159028Y0160835D03*
X0169028Y0160835D03*
X0179028Y0160835D03*
X0189028Y0160835D03*
X0199028Y0160835D03*
X0209028Y0160835D03*
X0219028Y0160835D03*
X0229028Y0160835D03*
X0239028Y0160835D03*
X0249028Y0160835D03*
X0259028Y0160835D03*
X0259028Y0170835D03*
X0249028Y0170835D03*
X0239028Y0170835D03*
X0229028Y0170835D03*
X0219028Y0170835D03*
X0209028Y0170835D03*
X0199028Y0170835D03*
X0189028Y0170835D03*
X0179028Y0170835D03*
X0169028Y0170835D03*
X0159028Y0170835D03*
X0149028Y0170835D03*
X0139028Y0170835D03*
X0129028Y0170835D03*
X0119028Y0170835D03*
X0109028Y0170835D03*
X0099028Y0170835D03*
X0089028Y0170835D03*
X0079028Y0170835D03*
X0069028Y0170835D03*
X0069028Y0160835D03*
D14*
X0313201Y0164142D03*
D15*
X0313201Y0154142D03*
X0313201Y0144142D03*
X0313201Y0134142D03*
X0313201Y0124142D03*
X0313201Y0114142D03*
X0313201Y0104142D03*
X0313201Y0094142D03*
X0313201Y0084142D03*
X0313201Y0074142D03*
X0313201Y0064142D03*
X0313201Y0054142D03*
X0313201Y0044142D03*
X0313201Y0034142D03*
X0313201Y0024142D03*
D16*
X0045650Y0062213D03*
X0045650Y0082213D03*
D17*
X0045650Y0072213D03*
D18*
X0042374Y0129024D03*
X0042374Y0137291D03*
X0058122Y0137291D03*
X0058122Y0129024D03*
X0069933Y0129024D03*
X0069933Y0137291D03*
D19*
X0069933Y0120323D03*
X0069933Y0112921D03*
X0058122Y0112921D03*
X0058122Y0120323D03*
X0042374Y0120323D03*
X0042374Y0112921D03*
D20*
X0050642Y0032075D03*
X0053201Y0032075D03*
X0055760Y0032075D03*
X0058319Y0032075D03*
X0060878Y0032075D03*
D21*
X0063241Y0030008D03*
X0048280Y0030008D03*
D22*
X0041256Y0021346D03*
X0070264Y0021346D03*
D23*
X0055760Y0021346D03*
D24*
X0255741Y0023945D02*
X0262078Y0023945D01*
X0262078Y0031819D02*
X0255741Y0031819D01*
X0255741Y0039693D02*
X0262078Y0039693D01*
X0262078Y0047567D02*
X0255741Y0047567D01*
X0255741Y0055441D02*
X0262078Y0055441D01*
X0262078Y0063315D02*
X0255741Y0063315D01*
X0255741Y0071189D02*
X0262078Y0071189D01*
X0262078Y0079063D02*
X0255741Y0079063D01*
X0255741Y0086937D02*
X0262078Y0086937D01*
X0262078Y0094811D02*
X0255741Y0094811D01*
X0255741Y0102685D02*
X0262078Y0102685D01*
X0262078Y0110559D02*
X0255741Y0110559D01*
X0255741Y0118433D02*
X0262078Y0118433D01*
X0262078Y0126307D02*
X0255741Y0126307D01*
X0255741Y0134181D02*
X0262078Y0134181D01*
D25*
X0278201Y0165835D03*
X0049855Y0165835D03*
M02*
