G75*
%MOIN*%
%OFA0B0*%
%FSLAX25Y25*%
%IPPOS*%
%LPD*%
%AMOC8*
5,1,8,0,0,1.08239X$1,22.5*
%
%ADD10C,0.00000*%
%ADD11R,0.09843X0.05906*%
%ADD12R,0.27559X0.05906*%
%ADD13R,0.27559X0.04724*%
%ADD14C,0.05550*%
%ADD15R,0.06400X0.06400*%
%ADD16OC8,0.06400*%
%ADD17R,0.16000X0.06000*%
%ADD18R,0.16000X0.05000*%
%ADD19R,0.04724X0.04724*%
%ADD20R,0.03937X0.05906*%
%ADD21R,0.01575X0.05709*%
%ADD22R,0.07087X0.05906*%
%ADD23C,0.06337*%
%ADD24C,0.03200*%
%ADD25C,0.04362*%
%ADD26C,0.05000*%
%ADD27C,0.01600*%
%ADD28C,0.01000*%
%ADD29C,0.22835*%
D10*
X0036863Y0013472D02*
X0036863Y0179614D01*
X0323477Y0179614D01*
X0323477Y0013472D01*
X0036863Y0013472D01*
X0047394Y0030008D02*
X0047396Y0030089D01*
X0047402Y0030171D01*
X0047412Y0030252D01*
X0047426Y0030332D01*
X0047443Y0030411D01*
X0047465Y0030490D01*
X0047490Y0030567D01*
X0047519Y0030644D01*
X0047552Y0030718D01*
X0047589Y0030791D01*
X0047628Y0030862D01*
X0047672Y0030931D01*
X0047718Y0030998D01*
X0047768Y0031062D01*
X0047821Y0031124D01*
X0047877Y0031184D01*
X0047935Y0031240D01*
X0047997Y0031294D01*
X0048061Y0031345D01*
X0048127Y0031392D01*
X0048195Y0031436D01*
X0048266Y0031477D01*
X0048338Y0031514D01*
X0048413Y0031548D01*
X0048488Y0031578D01*
X0048566Y0031604D01*
X0048644Y0031627D01*
X0048723Y0031645D01*
X0048803Y0031660D01*
X0048884Y0031671D01*
X0048965Y0031678D01*
X0049047Y0031681D01*
X0049128Y0031680D01*
X0049209Y0031675D01*
X0049290Y0031666D01*
X0049371Y0031653D01*
X0049451Y0031636D01*
X0049529Y0031616D01*
X0049607Y0031591D01*
X0049684Y0031563D01*
X0049759Y0031531D01*
X0049832Y0031496D01*
X0049903Y0031457D01*
X0049973Y0031414D01*
X0050040Y0031369D01*
X0050106Y0031320D01*
X0050168Y0031268D01*
X0050228Y0031212D01*
X0050285Y0031154D01*
X0050340Y0031094D01*
X0050391Y0031030D01*
X0050439Y0030965D01*
X0050484Y0030897D01*
X0050526Y0030827D01*
X0050564Y0030755D01*
X0050599Y0030681D01*
X0050630Y0030606D01*
X0050657Y0030529D01*
X0050680Y0030451D01*
X0050700Y0030372D01*
X0050716Y0030292D01*
X0050728Y0030211D01*
X0050736Y0030130D01*
X0050740Y0030049D01*
X0050740Y0029967D01*
X0050736Y0029886D01*
X0050728Y0029805D01*
X0050716Y0029724D01*
X0050700Y0029644D01*
X0050680Y0029565D01*
X0050657Y0029487D01*
X0050630Y0029410D01*
X0050599Y0029335D01*
X0050564Y0029261D01*
X0050526Y0029189D01*
X0050484Y0029119D01*
X0050439Y0029051D01*
X0050391Y0028986D01*
X0050340Y0028922D01*
X0050285Y0028862D01*
X0050228Y0028804D01*
X0050168Y0028748D01*
X0050106Y0028696D01*
X0050040Y0028647D01*
X0049973Y0028602D01*
X0049904Y0028559D01*
X0049832Y0028520D01*
X0049759Y0028485D01*
X0049684Y0028453D01*
X0049607Y0028425D01*
X0049529Y0028400D01*
X0049451Y0028380D01*
X0049371Y0028363D01*
X0049290Y0028350D01*
X0049209Y0028341D01*
X0049128Y0028336D01*
X0049047Y0028335D01*
X0048965Y0028338D01*
X0048884Y0028345D01*
X0048803Y0028356D01*
X0048723Y0028371D01*
X0048644Y0028389D01*
X0048566Y0028412D01*
X0048488Y0028438D01*
X0048413Y0028468D01*
X0048338Y0028502D01*
X0048266Y0028539D01*
X0048195Y0028580D01*
X0048127Y0028624D01*
X0048061Y0028671D01*
X0047997Y0028722D01*
X0047935Y0028776D01*
X0047877Y0028832D01*
X0047821Y0028892D01*
X0047768Y0028954D01*
X0047718Y0029018D01*
X0047672Y0029085D01*
X0047628Y0029154D01*
X0047589Y0029225D01*
X0047552Y0029298D01*
X0047519Y0029372D01*
X0047490Y0029449D01*
X0047465Y0029526D01*
X0047443Y0029605D01*
X0047426Y0029684D01*
X0047412Y0029764D01*
X0047402Y0029845D01*
X0047396Y0029927D01*
X0047394Y0030008D01*
X0062355Y0030008D02*
X0062357Y0030089D01*
X0062363Y0030171D01*
X0062373Y0030252D01*
X0062387Y0030332D01*
X0062404Y0030411D01*
X0062426Y0030490D01*
X0062451Y0030567D01*
X0062480Y0030644D01*
X0062513Y0030718D01*
X0062550Y0030791D01*
X0062589Y0030862D01*
X0062633Y0030931D01*
X0062679Y0030998D01*
X0062729Y0031062D01*
X0062782Y0031124D01*
X0062838Y0031184D01*
X0062896Y0031240D01*
X0062958Y0031294D01*
X0063022Y0031345D01*
X0063088Y0031392D01*
X0063156Y0031436D01*
X0063227Y0031477D01*
X0063299Y0031514D01*
X0063374Y0031548D01*
X0063449Y0031578D01*
X0063527Y0031604D01*
X0063605Y0031627D01*
X0063684Y0031645D01*
X0063764Y0031660D01*
X0063845Y0031671D01*
X0063926Y0031678D01*
X0064008Y0031681D01*
X0064089Y0031680D01*
X0064170Y0031675D01*
X0064251Y0031666D01*
X0064332Y0031653D01*
X0064412Y0031636D01*
X0064490Y0031616D01*
X0064568Y0031591D01*
X0064645Y0031563D01*
X0064720Y0031531D01*
X0064793Y0031496D01*
X0064864Y0031457D01*
X0064934Y0031414D01*
X0065001Y0031369D01*
X0065067Y0031320D01*
X0065129Y0031268D01*
X0065189Y0031212D01*
X0065246Y0031154D01*
X0065301Y0031094D01*
X0065352Y0031030D01*
X0065400Y0030965D01*
X0065445Y0030897D01*
X0065487Y0030827D01*
X0065525Y0030755D01*
X0065560Y0030681D01*
X0065591Y0030606D01*
X0065618Y0030529D01*
X0065641Y0030451D01*
X0065661Y0030372D01*
X0065677Y0030292D01*
X0065689Y0030211D01*
X0065697Y0030130D01*
X0065701Y0030049D01*
X0065701Y0029967D01*
X0065697Y0029886D01*
X0065689Y0029805D01*
X0065677Y0029724D01*
X0065661Y0029644D01*
X0065641Y0029565D01*
X0065618Y0029487D01*
X0065591Y0029410D01*
X0065560Y0029335D01*
X0065525Y0029261D01*
X0065487Y0029189D01*
X0065445Y0029119D01*
X0065400Y0029051D01*
X0065352Y0028986D01*
X0065301Y0028922D01*
X0065246Y0028862D01*
X0065189Y0028804D01*
X0065129Y0028748D01*
X0065067Y0028696D01*
X0065001Y0028647D01*
X0064934Y0028602D01*
X0064865Y0028559D01*
X0064793Y0028520D01*
X0064720Y0028485D01*
X0064645Y0028453D01*
X0064568Y0028425D01*
X0064490Y0028400D01*
X0064412Y0028380D01*
X0064332Y0028363D01*
X0064251Y0028350D01*
X0064170Y0028341D01*
X0064089Y0028336D01*
X0064008Y0028335D01*
X0063926Y0028338D01*
X0063845Y0028345D01*
X0063764Y0028356D01*
X0063684Y0028371D01*
X0063605Y0028389D01*
X0063527Y0028412D01*
X0063449Y0028438D01*
X0063374Y0028468D01*
X0063299Y0028502D01*
X0063227Y0028539D01*
X0063156Y0028580D01*
X0063088Y0028624D01*
X0063022Y0028671D01*
X0062958Y0028722D01*
X0062896Y0028776D01*
X0062838Y0028832D01*
X0062782Y0028892D01*
X0062729Y0028954D01*
X0062679Y0029018D01*
X0062633Y0029085D01*
X0062589Y0029154D01*
X0062550Y0029225D01*
X0062513Y0029298D01*
X0062480Y0029372D01*
X0062451Y0029449D01*
X0062426Y0029526D01*
X0062404Y0029605D01*
X0062387Y0029684D01*
X0062373Y0029764D01*
X0062363Y0029845D01*
X0062357Y0029927D01*
X0062355Y0030008D01*
D11*
X0056548Y0021346D03*
X0278831Y0023945D03*
X0278831Y0031819D03*
X0278831Y0039693D03*
X0278831Y0047567D03*
X0278831Y0055441D03*
X0278831Y0063315D03*
X0278831Y0071189D03*
X0278831Y0079063D03*
X0278831Y0086937D03*
X0278831Y0094811D03*
X0278831Y0102685D03*
X0278831Y0110559D03*
X0278831Y0118433D03*
X0278831Y0126307D03*
X0278831Y0134181D03*
D12*
X0076469Y0081740D03*
X0076626Y0062843D03*
D13*
X0076469Y0072291D03*
D14*
X0079815Y0160835D03*
X0069815Y0160835D03*
X0069815Y0170835D03*
X0079815Y0170835D03*
X0089815Y0170835D03*
X0099815Y0170835D03*
X0109815Y0170835D03*
X0119815Y0170835D03*
X0129815Y0170835D03*
X0139815Y0170835D03*
X0149815Y0170835D03*
X0159815Y0170835D03*
X0169815Y0170835D03*
X0179815Y0170835D03*
X0189815Y0170835D03*
X0199815Y0170835D03*
X0209815Y0170835D03*
X0219815Y0170835D03*
X0229815Y0170835D03*
X0239815Y0170835D03*
X0249815Y0170835D03*
X0259815Y0170835D03*
X0259815Y0160835D03*
X0249815Y0160835D03*
X0239815Y0160835D03*
X0229815Y0160835D03*
X0219815Y0160835D03*
X0209815Y0160835D03*
X0199815Y0160835D03*
X0189815Y0160835D03*
X0179815Y0160835D03*
X0169815Y0160835D03*
X0159815Y0160835D03*
X0149815Y0160835D03*
X0139815Y0160835D03*
X0129815Y0160835D03*
X0119815Y0160835D03*
X0109815Y0160835D03*
X0099815Y0160835D03*
X0089815Y0160835D03*
D15*
X0313989Y0164142D03*
D16*
X0313989Y0154142D03*
X0313989Y0144142D03*
X0313989Y0134142D03*
X0313989Y0124142D03*
X0313989Y0114142D03*
X0313989Y0104142D03*
X0313989Y0094142D03*
X0313989Y0084142D03*
X0313989Y0074142D03*
X0313989Y0064142D03*
X0313989Y0054142D03*
X0313989Y0044142D03*
X0313989Y0034142D03*
X0313989Y0024142D03*
D17*
X0045650Y0062213D03*
X0045650Y0082213D03*
D18*
X0045650Y0072213D03*
D19*
X0043162Y0129024D03*
X0043162Y0137291D03*
X0058910Y0137291D03*
X0070721Y0137291D03*
X0070721Y0129024D03*
X0058910Y0129024D03*
D20*
X0058910Y0120323D03*
X0070721Y0120323D03*
X0070721Y0112921D03*
X0058910Y0112921D03*
X0043162Y0112921D03*
X0043162Y0120323D03*
D21*
X0051430Y0032075D03*
X0053989Y0032075D03*
X0056548Y0032075D03*
X0059107Y0032075D03*
X0061666Y0032075D03*
D22*
X0071056Y0021346D03*
X0042040Y0021346D03*
D23*
X0256529Y0023945D02*
X0262866Y0023945D01*
X0262866Y0031819D02*
X0256529Y0031819D01*
X0256529Y0039693D02*
X0262866Y0039693D01*
X0262866Y0047567D02*
X0256529Y0047567D01*
X0256529Y0055441D02*
X0262866Y0055441D01*
X0262866Y0063315D02*
X0256529Y0063315D01*
X0256529Y0071189D02*
X0262866Y0071189D01*
X0262866Y0079063D02*
X0256529Y0079063D01*
X0256529Y0086937D02*
X0262866Y0086937D01*
X0262866Y0094811D02*
X0256529Y0094811D01*
X0256529Y0102685D02*
X0262866Y0102685D01*
X0262866Y0110559D02*
X0256529Y0110559D01*
X0256529Y0118433D02*
X0262866Y0118433D01*
X0262866Y0126307D02*
X0256529Y0126307D01*
X0256529Y0134181D02*
X0262866Y0134181D01*
D24*
X0259697Y0134181D02*
X0278831Y0134181D01*
X0278831Y0134102D01*
X0278831Y0134181D02*
X0278595Y0134417D01*
X0278595Y0146543D01*
X0282532Y0150480D01*
X0300642Y0150480D01*
X0303004Y0152843D01*
X0303004Y0159929D01*
X0306941Y0163866D01*
X0313713Y0163866D01*
X0313989Y0163591D01*
X0313989Y0154142D01*
X0313162Y0144181D02*
X0313989Y0144142D01*
X0313162Y0144181D02*
X0295918Y0144181D01*
X0291193Y0139457D01*
X0291193Y0123709D01*
X0285918Y0118433D01*
X0278831Y0118433D01*
X0259697Y0118433D01*
X0228752Y0118433D01*
X0228201Y0118984D01*
X0217965Y0105598D02*
X0191981Y0105598D01*
X0179815Y0104378D02*
X0179775Y0104380D01*
X0179735Y0104385D01*
X0179697Y0104395D01*
X0179659Y0104407D01*
X0179622Y0104423D01*
X0179587Y0104443D01*
X0179554Y0104465D01*
X0179523Y0104491D01*
X0179495Y0104519D01*
X0179469Y0104550D01*
X0179447Y0104583D01*
X0179427Y0104618D01*
X0179411Y0104655D01*
X0179399Y0104693D01*
X0179389Y0104731D01*
X0179384Y0104771D01*
X0179382Y0104811D01*
X0177807Y0134732D01*
X0186469Y0142606D01*
X0186469Y0149693D01*
X0180170Y0155992D01*
X0180170Y0160480D01*
X0179815Y0160835D01*
X0178595Y0146543D02*
X0106941Y0146543D01*
X0103792Y0149693D01*
X0046311Y0149693D01*
X0043162Y0146543D01*
X0043162Y0137291D01*
X0049264Y0137291D01*
X0051036Y0135520D01*
X0051036Y0114260D01*
X0052611Y0112685D01*
X0058674Y0112685D01*
X0058910Y0112921D01*
X0070721Y0112921D02*
X0070721Y0082764D01*
X0069933Y0081976D01*
X0076469Y0081976D01*
X0076469Y0081740D01*
X0069933Y0081976D02*
X0043162Y0081976D01*
X0043398Y0082213D01*
X0045650Y0082213D01*
X0043162Y0081976D02*
X0043162Y0112921D01*
X0043162Y0120323D02*
X0043162Y0129024D01*
X0058910Y0129024D02*
X0058910Y0120323D01*
X0070721Y0120323D02*
X0070721Y0129024D01*
X0070721Y0137291D02*
X0058910Y0137291D01*
X0070721Y0137291D02*
X0124855Y0137291D01*
X0134500Y0127646D01*
X0134500Y0046543D01*
X0054973Y0046543D01*
X0051823Y0043394D01*
X0051823Y0037094D01*
X0056548Y0021346D02*
X0042040Y0021346D01*
X0056548Y0021346D02*
X0062059Y0021346D01*
X0071056Y0021346D01*
X0134500Y0046543D02*
X0232926Y0046543D01*
X0254737Y0023945D01*
X0254973Y0023945D01*
X0259697Y0023945D01*
X0277020Y0023945D01*
X0277020Y0023709D01*
X0276233Y0023709D01*
X0276233Y0023945D01*
X0278831Y0023945D01*
X0313792Y0023945D01*
X0313989Y0024142D01*
X0313989Y0034142D02*
X0300839Y0034142D01*
X0298516Y0031819D01*
X0278831Y0031819D01*
X0259697Y0031819D01*
X0259697Y0039693D02*
X0278831Y0039693D01*
X0278831Y0039614D01*
X0278831Y0039693D02*
X0297729Y0039693D01*
X0302217Y0044181D01*
X0312374Y0044181D01*
X0313989Y0044142D01*
X0313989Y0054142D02*
X0303516Y0054142D01*
X0296941Y0047567D01*
X0278831Y0047567D01*
X0259697Y0047567D01*
X0259697Y0055441D02*
X0278831Y0055441D01*
X0278831Y0055362D01*
X0278831Y0055441D02*
X0295367Y0055441D01*
X0304067Y0064142D01*
X0313989Y0064142D01*
X0313989Y0074142D02*
X0304619Y0074142D01*
X0293792Y0063315D01*
X0278831Y0063315D01*
X0259697Y0063315D01*
X0259697Y0071189D02*
X0213004Y0071189D01*
X0179815Y0104378D01*
X0214815Y0092213D02*
X0227178Y0079063D01*
X0259697Y0079063D01*
X0278831Y0079063D01*
X0278831Y0078984D01*
X0278831Y0079063D02*
X0292217Y0079063D01*
X0307296Y0094142D01*
X0313989Y0094142D01*
X0313792Y0084339D02*
X0306154Y0084339D01*
X0293004Y0071189D01*
X0278831Y0071189D01*
X0259697Y0071189D01*
X0278831Y0071110D02*
X0278831Y0071189D01*
X0278831Y0063315D02*
X0278831Y0063236D01*
X0278831Y0047567D02*
X0278831Y0047488D01*
X0278831Y0031819D02*
X0278831Y0031740D01*
X0313989Y0084142D02*
X0313792Y0084339D01*
X0308516Y0104024D02*
X0291430Y0086937D01*
X0278831Y0086937D01*
X0236626Y0086937D01*
X0217965Y0105598D01*
X0259697Y0102685D02*
X0259697Y0102606D01*
X0278831Y0102606D01*
X0278831Y0102685D01*
X0289855Y0102685D01*
X0311311Y0124142D01*
X0313989Y0124142D01*
X0304579Y0133945D02*
X0299855Y0129220D01*
X0299855Y0121346D01*
X0289067Y0110559D01*
X0278831Y0110559D01*
X0259697Y0110559D01*
X0278831Y0110480D02*
X0278831Y0110559D01*
X0278831Y0118354D02*
X0278831Y0118433D01*
X0278831Y0126228D02*
X0278831Y0126307D01*
X0259697Y0126307D01*
X0278831Y0126307D02*
X0278831Y0133394D01*
X0278831Y0134181D01*
X0278831Y0133394D02*
X0278595Y0137094D01*
X0304579Y0133945D02*
X0313989Y0133945D01*
X0313989Y0134142D01*
X0313989Y0114142D02*
X0313319Y0113472D01*
X0309304Y0113472D01*
X0290642Y0094811D01*
X0280957Y0094811D01*
X0280957Y0094732D01*
X0259697Y0094732D01*
X0259697Y0094811D01*
X0259697Y0086937D02*
X0259697Y0086858D01*
X0278831Y0086858D01*
X0278831Y0086937D01*
X0278831Y0094811D02*
X0280957Y0094811D01*
X0308516Y0104024D02*
X0313870Y0104024D01*
X0313989Y0104142D01*
X0313713Y0163866D02*
X0313989Y0164142D01*
X0103792Y0149693D02*
X0099815Y0153669D01*
X0099815Y0160835D01*
X0103004Y0063079D02*
X0103792Y0062291D01*
X0103792Y0063079D01*
X0080170Y0062291D02*
X0077178Y0062291D01*
X0076626Y0062843D01*
X0080091Y0062213D02*
X0080170Y0062291D01*
D25*
X0103792Y0063079D03*
X0104579Y0079614D03*
X0062059Y0039457D03*
X0069146Y0035520D03*
X0064422Y0022134D03*
X0191981Y0105598D03*
X0214815Y0092213D03*
X0228201Y0118984D03*
X0178595Y0146543D03*
D26*
X0104579Y0079614D02*
X0102217Y0081976D01*
X0076705Y0081976D01*
X0076677Y0081974D01*
X0076649Y0081969D01*
X0076621Y0081961D01*
X0076595Y0081949D01*
X0076571Y0081934D01*
X0076549Y0081917D01*
X0076528Y0081896D01*
X0076511Y0081874D01*
X0076496Y0081850D01*
X0076484Y0081824D01*
X0076476Y0081796D01*
X0076471Y0081768D01*
X0076469Y0081740D01*
X0076469Y0072291D02*
X0076467Y0072276D01*
X0076463Y0072261D01*
X0076456Y0072247D01*
X0076446Y0072235D01*
X0076434Y0072225D01*
X0076420Y0072218D01*
X0076405Y0072214D01*
X0076390Y0072212D01*
X0076390Y0072213D02*
X0045650Y0072213D01*
X0045493Y0062843D02*
X0069933Y0062843D01*
X0070170Y0063079D01*
X0103004Y0063079D01*
X0103792Y0063079D01*
X0106154Y0065441D01*
X0106154Y0078039D01*
X0104579Y0079614D01*
X0076626Y0062843D02*
X0069933Y0062843D01*
X0045650Y0062212D02*
X0045616Y0062234D01*
X0045585Y0062259D01*
X0045556Y0062287D01*
X0045529Y0062317D01*
X0045506Y0062349D01*
X0045485Y0062383D01*
X0045467Y0062419D01*
X0045452Y0062456D01*
X0045441Y0062495D01*
X0045433Y0062534D01*
X0045428Y0062574D01*
X0045427Y0062614D01*
X0045429Y0062654D01*
X0045435Y0062693D01*
X0045445Y0062732D01*
X0045457Y0062770D01*
X0045473Y0062807D01*
X0045492Y0062842D01*
D27*
X0058910Y0041031D02*
X0058122Y0040244D01*
X0058122Y0036529D01*
X0060557Y0036529D01*
X0061494Y0035592D01*
X0061494Y0032386D01*
X0062061Y0032952D01*
X0063337Y0033481D01*
X0064719Y0033481D01*
X0065995Y0032952D01*
X0066972Y0031975D01*
X0067501Y0030699D01*
X0067501Y0029317D01*
X0066972Y0028040D01*
X0065995Y0027063D01*
X0064719Y0026535D01*
X0063337Y0026535D01*
X0062061Y0027063D01*
X0061083Y0028040D01*
X0061052Y0028116D01*
X0060557Y0027620D01*
X0058122Y0027620D01*
X0058122Y0023709D01*
X0068359Y0023709D01*
X0069933Y0025283D01*
X0069933Y0040244D01*
X0069146Y0041031D01*
X0058910Y0041031D01*
X0058544Y0040666D02*
X0069512Y0040666D01*
X0069933Y0039067D02*
X0058122Y0039067D01*
X0058122Y0037469D02*
X0069933Y0037469D01*
X0069933Y0035870D02*
X0061216Y0035870D01*
X0061494Y0034272D02*
X0069933Y0034272D01*
X0069933Y0032673D02*
X0066274Y0032673D01*
X0067345Y0031075D02*
X0069933Y0031075D01*
X0069933Y0029476D02*
X0067501Y0029476D01*
X0066810Y0027878D02*
X0069933Y0027878D01*
X0069933Y0026279D02*
X0058122Y0026279D01*
X0058122Y0024681D02*
X0069331Y0024681D01*
X0062059Y0021346D02*
X0061666Y0021740D01*
X0061666Y0032075D01*
X0061666Y0039063D01*
X0062059Y0039457D01*
X0061781Y0032673D02*
X0061494Y0032673D01*
X0061246Y0027878D02*
X0060814Y0027878D01*
X0051430Y0032075D02*
X0051430Y0036701D01*
X0051823Y0037094D01*
D28*
X0051823Y0037026D02*
X0044737Y0037026D01*
X0044737Y0038024D02*
X0051965Y0038024D01*
X0051823Y0037882D02*
X0051823Y0031647D01*
X0051757Y0031805D01*
X0050865Y0032698D01*
X0049699Y0033181D01*
X0048436Y0033181D01*
X0047270Y0032698D01*
X0046377Y0031805D01*
X0045894Y0030639D01*
X0045894Y0029377D01*
X0046377Y0028210D01*
X0047270Y0027318D01*
X0048436Y0026835D01*
X0049699Y0026835D01*
X0050865Y0027318D01*
X0051757Y0028210D01*
X0051823Y0028369D01*
X0051823Y0026858D01*
X0051036Y0026071D01*
X0046311Y0026071D01*
X0044737Y0027646D01*
X0044737Y0046543D01*
X0046311Y0048118D01*
X0055760Y0048118D01*
X0057335Y0046543D01*
X0057335Y0044181D01*
X0056548Y0043394D01*
X0054185Y0043394D01*
X0052611Y0041819D01*
X0052611Y0038669D01*
X0051823Y0037882D01*
X0052611Y0039023D02*
X0044737Y0039023D01*
X0044737Y0040021D02*
X0052611Y0040021D01*
X0052611Y0041020D02*
X0044737Y0041020D01*
X0044737Y0042018D02*
X0052810Y0042018D01*
X0053808Y0043017D02*
X0044737Y0043017D01*
X0044737Y0044015D02*
X0057169Y0044015D01*
X0057335Y0045014D02*
X0044737Y0045014D01*
X0044737Y0046012D02*
X0057335Y0046012D01*
X0056868Y0047011D02*
X0045204Y0047011D01*
X0046203Y0048009D02*
X0055869Y0048009D01*
X0051823Y0036027D02*
X0044737Y0036027D01*
X0044737Y0035029D02*
X0051823Y0035029D01*
X0051823Y0034030D02*
X0044737Y0034030D01*
X0044737Y0033032D02*
X0048075Y0033032D01*
X0046605Y0032033D02*
X0044737Y0032033D01*
X0044737Y0031035D02*
X0046058Y0031035D01*
X0045894Y0030036D02*
X0044737Y0030036D01*
X0044737Y0029038D02*
X0046035Y0029038D01*
X0046549Y0028039D02*
X0044737Y0028039D01*
X0045342Y0027041D02*
X0047939Y0027041D01*
X0050195Y0027041D02*
X0051823Y0027041D01*
X0051823Y0028039D02*
X0051586Y0028039D01*
X0051530Y0032033D02*
X0051823Y0032033D01*
X0051823Y0033032D02*
X0050059Y0033032D01*
D29*
X0050642Y0165835D03*
X0278989Y0165835D03*
M02*
