%
M48
M72
T01C0.02362
T02C0.03150
T03C0.03346
T04C0.03937
T05C0.04000
T06C0.11811
%
T01
X63634Y22134
X68359Y35520
X61272Y39457
X103004Y63079
X103792Y79614
X192768Y104811
X214028Y92213
X193949Y150087
X174264Y150087
T02
X179028Y160835
X189028Y160835
X199028Y160835
X209028Y160835
X219028Y160835
X229028Y160835
X239028Y160835
X249028Y160835
X259028Y160835
X259028Y170835
X249028Y170835
X239028Y170835
X229028Y170835
X219028Y170835
X209028Y170835
X199028Y170835
X189028Y170835
X179028Y170835
X169028Y170835
X159028Y170835
X149028Y170835
X139028Y170835
X129028Y170835
X119028Y170835
X109028Y170835
X99028Y170835
X89028Y170835
X79028Y170835
X69028Y170835
X69028Y160835
X79028Y160835
X89028Y160835
X99028Y160835
X109028Y160835
X119028Y160835
X129028Y160835
X139028Y160835
X149028Y160835
X159028Y160835
X169028Y160835
T03
X48280Y30008
X63241Y30008
T04
X258910Y31819
X258910Y39693
X258910Y47567
X258910Y55441
X258910Y63315
X258910Y71189
X258910Y79063
X258910Y86937
X258910Y94811
X258910Y102685
X258910Y110559
X258910Y118433
X258910Y126307
X258910Y134181
X258910Y23945
T05
X313201Y24142
X313201Y34142
X313201Y44142
X313201Y54142
X313201Y64142
X313201Y74142
X313201Y84142
X313201Y94142
X313201Y104142
X313201Y114142
X313201Y124142
X313201Y134142
X313201Y144142
X313201Y154142
X313201Y164142
T06
X278201Y165835
X49855Y165835
M30
