G75*
%MOIN*%
%OFA0B0*%
%FSLAX25Y25*%
%IPPOS*%
%LPD*%
%AMOC8*
5,1,8,0,0,1.08239X$1,22.5*
%
%ADD10R,0.10643X0.06706*%
%ADD11R,0.28359X0.06706*%
%ADD12R,0.28359X0.05524*%
%ADD13C,0.06350*%
%ADD14R,0.07200X0.07200*%
%ADD15OC8,0.07200*%
%ADD16R,0.16800X0.06800*%
%ADD17R,0.16800X0.05800*%
%ADD18R,0.05524X0.05524*%
%ADD19R,0.04737X0.06706*%
%ADD20R,0.02375X0.06509*%
%ADD21C,0.04146*%
%ADD22R,0.07874X0.06693*%
%ADD23R,0.10630X0.06693*%
%ADD24C,0.07137*%
%ADD25C,0.23635*%
D10*
X0278831Y0023945D03*
X0278831Y0031819D03*
X0278831Y0039693D03*
X0278831Y0047567D03*
X0278831Y0055441D03*
X0278831Y0063315D03*
X0278831Y0071189D03*
X0278831Y0079063D03*
X0278831Y0086937D03*
X0278831Y0094811D03*
X0278831Y0102685D03*
X0278831Y0110559D03*
X0278831Y0118433D03*
X0278831Y0126307D03*
X0278831Y0134181D03*
D11*
X0076469Y0081740D03*
X0076626Y0062843D03*
D12*
X0076469Y0072291D03*
D13*
X0079815Y0160835D03*
X0069815Y0160835D03*
X0069815Y0170835D03*
X0079815Y0170835D03*
X0089815Y0170835D03*
X0099815Y0170835D03*
X0109815Y0170835D03*
X0119815Y0170835D03*
X0129815Y0170835D03*
X0139815Y0170835D03*
X0149815Y0170835D03*
X0159815Y0170835D03*
X0169815Y0170835D03*
X0179815Y0170835D03*
X0189815Y0170835D03*
X0199815Y0170835D03*
X0209815Y0170835D03*
X0219815Y0170835D03*
X0229815Y0170835D03*
X0239815Y0170835D03*
X0249815Y0170835D03*
X0259815Y0170835D03*
X0259815Y0160835D03*
X0249815Y0160835D03*
X0239815Y0160835D03*
X0229815Y0160835D03*
X0219815Y0160835D03*
X0209815Y0160835D03*
X0199815Y0160835D03*
X0189815Y0160835D03*
X0179815Y0160835D03*
X0169815Y0160835D03*
X0159815Y0160835D03*
X0149815Y0160835D03*
X0139815Y0160835D03*
X0129815Y0160835D03*
X0119815Y0160835D03*
X0109815Y0160835D03*
X0099815Y0160835D03*
X0089815Y0160835D03*
D14*
X0313989Y0164142D03*
D15*
X0313989Y0154142D03*
X0313989Y0144142D03*
X0313989Y0134142D03*
X0313989Y0124142D03*
X0313989Y0114142D03*
X0313989Y0104142D03*
X0313989Y0094142D03*
X0313989Y0084142D03*
X0313989Y0074142D03*
X0313989Y0064142D03*
X0313989Y0054142D03*
X0313989Y0044142D03*
X0313989Y0034142D03*
X0313989Y0024142D03*
D16*
X0045650Y0062213D03*
X0045650Y0082213D03*
D17*
X0045650Y0072213D03*
D18*
X0043162Y0129024D03*
X0043162Y0137291D03*
X0058910Y0137291D03*
X0070721Y0137291D03*
X0070721Y0129024D03*
X0058910Y0129024D03*
D19*
X0058910Y0120323D03*
X0070721Y0120323D03*
X0070721Y0112921D03*
X0058910Y0112921D03*
X0043162Y0112921D03*
X0043162Y0120323D03*
D20*
X0051430Y0032075D03*
X0053989Y0032075D03*
X0056548Y0032075D03*
X0059107Y0032075D03*
X0061666Y0032075D03*
D21*
X0064028Y0030008D03*
X0049067Y0030008D03*
D22*
X0042044Y0021346D03*
X0071052Y0021346D03*
D23*
X0056548Y0021346D03*
D24*
X0256529Y0023945D02*
X0262866Y0023945D01*
X0262866Y0031819D02*
X0256529Y0031819D01*
X0256529Y0039693D02*
X0262866Y0039693D01*
X0262866Y0047567D02*
X0256529Y0047567D01*
X0256529Y0055441D02*
X0262866Y0055441D01*
X0262866Y0063315D02*
X0256529Y0063315D01*
X0256529Y0071189D02*
X0262866Y0071189D01*
X0262866Y0079063D02*
X0256529Y0079063D01*
X0256529Y0086937D02*
X0262866Y0086937D01*
X0262866Y0094811D02*
X0256529Y0094811D01*
X0256529Y0102685D02*
X0262866Y0102685D01*
X0262866Y0110559D02*
X0256529Y0110559D01*
X0256529Y0118433D02*
X0262866Y0118433D01*
X0262866Y0126307D02*
X0256529Y0126307D01*
X0256529Y0134181D02*
X0262866Y0134181D01*
D25*
X0278989Y0165835D03*
X0050642Y0165835D03*
M02*
