G75*
%MOIN*%
%OFA0B0*%
%FSLAX25Y25*%
%IPPOS*%
%LPD*%
%AMOC8*
5,1,8,0,0,1.08239X$1,22.5*
%
%ADD10C,0.06350*%
%ADD11R,0.07200X0.07200*%
%ADD12OC8,0.07200*%
%ADD13R,0.16800X0.06800*%
%ADD14C,0.04146*%
%ADD15C,0.07137*%
%ADD16C,0.23635*%
D10*
X0069815Y0160835D03*
X0079815Y0160835D03*
X0089815Y0160835D03*
X0099815Y0160835D03*
X0109815Y0160835D03*
X0119815Y0160835D03*
X0129815Y0160835D03*
X0139815Y0160835D03*
X0149815Y0160835D03*
X0159815Y0160835D03*
X0169815Y0160835D03*
X0179815Y0160835D03*
X0189815Y0160835D03*
X0199815Y0160835D03*
X0209815Y0160835D03*
X0219815Y0160835D03*
X0229815Y0160835D03*
X0239815Y0160835D03*
X0249815Y0160835D03*
X0259815Y0160835D03*
X0259815Y0170835D03*
X0249815Y0170835D03*
X0239815Y0170835D03*
X0229815Y0170835D03*
X0219815Y0170835D03*
X0209815Y0170835D03*
X0199815Y0170835D03*
X0189815Y0170835D03*
X0179815Y0170835D03*
X0169815Y0170835D03*
X0159815Y0170835D03*
X0149815Y0170835D03*
X0139815Y0170835D03*
X0129815Y0170835D03*
X0119815Y0170835D03*
X0109815Y0170835D03*
X0099815Y0170835D03*
X0089815Y0170835D03*
X0079815Y0170835D03*
X0069815Y0170835D03*
D11*
X0313989Y0164142D03*
D12*
X0313989Y0154142D03*
X0313989Y0144142D03*
X0313989Y0134142D03*
X0313989Y0124142D03*
X0313989Y0114142D03*
X0313989Y0104142D03*
X0313989Y0094142D03*
X0313989Y0084142D03*
X0313989Y0074142D03*
X0313989Y0064142D03*
X0313989Y0054142D03*
X0313989Y0044142D03*
X0313989Y0034142D03*
X0313989Y0024142D03*
D13*
X0045650Y0062213D03*
X0045650Y0082213D03*
D14*
X0049067Y0030008D03*
X0064028Y0030008D03*
D15*
X0256529Y0031819D02*
X0262866Y0031819D01*
X0262866Y0039693D02*
X0256529Y0039693D01*
X0256529Y0047567D02*
X0262866Y0047567D01*
X0262866Y0055441D02*
X0256529Y0055441D01*
X0256529Y0063315D02*
X0262866Y0063315D01*
X0262866Y0071189D02*
X0256529Y0071189D01*
X0256529Y0079063D02*
X0262866Y0079063D01*
X0262866Y0086937D02*
X0256529Y0086937D01*
X0256529Y0094811D02*
X0262866Y0094811D01*
X0262866Y0102685D02*
X0256529Y0102685D01*
X0256529Y0110559D02*
X0262866Y0110559D01*
X0262866Y0118433D02*
X0256529Y0118433D01*
X0256529Y0126307D02*
X0262866Y0126307D01*
X0262866Y0134181D02*
X0256529Y0134181D01*
X0256529Y0023945D02*
X0262866Y0023945D01*
D16*
X0278989Y0165835D03*
X0050642Y0165835D03*
M02*
